ply
format ascii 1.0
comment VCGLIB generated
element vertex 232
property float x
property float y
property float z
property float nx
property float ny
property float nz
element face 448
property list uchar int vertex_indices
end_header
-47.663 -5.715 -0.001 0 0 -0.217401 
-46.705 -4.192 -0.001 0 0 -0.233735 
-67.773 -3.55 4.001 0 0 1.25829 
-70.552 0.82 -0.001 0 0 -2.147 
-74.001 -8.001 -0.001 0 0 -0.325877 
-68.388 -1.209 4.001 -0.493185 1.42222 0 
-68.14 -1.123 4.001 -0.0302037 0.0466776 0 
-67.816 -0.849 4.001 0 0 1.71508 
-66.093 -2.115 4.001 0 0 0.094869 
-67.953 -1.002 4.001 -0.0381974 0.0342032 0 
-18.515 -8.001 4.001 -1.5708 0 0 
-18.515 0.33 4.001 -0.447824 0 0 
-18.515 -8.001 -0.001 -1.12297 0 0 
-15.096 0.33 4.001 0.447824 0 0 
-67.718 -0.665 4.001 -0.11418 0.0194038 0 
-49.935 -3.313 -0.001 -1.55264 0.238135 0 
-15.096 -8.001 4.001 0 0 1.5708 
-33.096 0.33 4.001 1.5708 0 0 
-50.128 -6.908 -0.001 0.11243 -1.56677 0 
-51.424 -7.001 -0.001 0.08996 -1.25364 0 
-33.096 -8.001 4.001 0 0 1.5708 
-15.096 -8.001 -0.001 0 -1.5708 0 
-36.515 -8.001 4.001 0 -1.5708 0 
-49.81 -2.498 -0.001 -1.03549 0 0 
-49.81 -2.498 4.001 -1.5708 0 0 
-67.564 -5.31 4.001 0 0 0.437861 
-49.032 -6.631 -0.001 0.317439 -1.256 0 
-65.27 -7.487 4.001 0 0 0.13956 
-64.65 -7.016 4.001 0 0 1.31455 
-64.176 -6.401 4.001 0 0 1.35142 
-53.465 -3.303 4.001 1.35376 0.210211 0 
-68.1 -8.001 4.001 0 -1.5708 0 
-70.552 -5.624 4.001 0 0 0.769868 
-74.001 -8.001 4.001 0 0 0.603431 
-69.066 -1.277 4.001 0 0 0.732164 
0.477 -6.001 -0.001 0 -0.654523 0 
0.477 -6.001 4.001 0 -1.5708 0 
-56.684 -4.211 -0.001 -1.05826 -0.605545 0 
-70.552 -3.383 4.001 0 0 0.641488 
-33.096 0.33 -0.001 0 0 -0.389435 
-33.096 -8.001 -0.001 0 0 -1.5708 
-36.515 -8.001 -0.001 0 0 -1.18136 
-53.186 -6.888 4.001 -0.425396 -1.5121 0 
-53.186 -6.888 -0.001 -0.106365 -0.378081 0 
-74.001 3.061 4.001 0 1.5708 0 
-1.624 2.541 -0.001 0.120888 -0.0714903 0 
-1.912 2.054 4.001 0.120888 -0.0714903 0 
-64.289 0.307 -0.001 1.54029 0.308053 0 
-2.073 1.304 4.001 0.18516 -0.0397478 0 
-65.146 2.269 -0.001 1.27246 0.921001 0 
-64.504 1.382 -0.001 0.216344 0.156589 0 
-64.504 1.382 4.001 1.27246 0.921001 0 
-65.146 2.269 4.001 0.777922 1.36464 0 
-22.001 3.061 4.001 0 1.20313 0 
-11.611 3.061 4.001 0 1.5708 0 
-11.611 0.33 4.001 0 0 1.5708 
-67.64 -0.206 -0.001 -1.54557 -0.28037 0 
-67.64 -0.206 4.001 -1.43855 -0.260956 0 
-67.953 0.549 4.001 0 0 0.369441 
-22.001 0.33 4.001 0 -1.5708 0 
-22.001 0.33 -0.001 0 -0.8542 0 
-18.515 0.33 -0.001 0 -1.5708 0 
-67.718 0.224 -0.001 -1.27289 -0.920403 0 
-69.043 0.82 4.001 0 0 2.14225 
-66.188 2.863 4.001 0 0 0.983788 
-68.138 0.667 4.001 0 0 0.505871 
-67.602 3.061 4.001 0 0 0.105514 
-29.611 0.33 4.001 1.5708 0 0 
-29.611 3.061 -0.001 1.5708 0 0 
-40.001 0.33 -0.001 0 -0.716597 0 
-40.001 3.061 -0.001 0 1.5708 0 
-67.292 -4.027 -0.001 -1.24185 -0.961884 0 
-67.292 -4.027 4.001 -1.15573 -0.895183 0 
-67.56 -3.681 4.001 -1.24185 -0.961884 0 
-29.611 0.33 -0.001 0 -1.5708 0 
-40.001 3.061 4.001 0 0 0.906248 
-40.001 0.33 4.001 0 0 1.5708 
-36.515 0.33 4.001 0 0 2.10036 
-29.611 3.061 4.001 0 0 0.37668 
-68.054 -3.457 4.001 -0.470351 -1.42116 0 
-53.465 -3.303 -0.001 0 0 -1.40627 
-55.955 -5.485 -0.001 0 0 -1.37096 
-57.001 4.25 -0.001 0 0 -1.5708 
-53.59 4.25 -0.001 0 0 -1.09323 
-57.001 -2.341 -0.001 0 0 -0.477568 
-46.399 4.25 -0.001 1.02511 0 0 
-46.399 -2.341 -0.001 1.5708 0 0 
-68.817 -3.383 4.001 -0.133364 -1.37509 0 
-49.81 4.25 4.001 0 0.705842 0 
-46.399 4.25 4.001 0 1.5708 0 
-68.1 -8.001 -0.001 0.118058 -1.19778 0 
-57.001 4.25 4.001 0 0 1.5708 
-66.188 2.863 -0.001 0 0 -1.70429 
-68.138 0.667 -0.001 0 0 -0.505871 
-68.809 -5.624 4.001 0 0.410758 0 
-46.399 -2.341 4.001 0 0 1.36097 
-67.953 0.549 -0.001 0 0 -1.65462 
0.251 2.021 4.001 0 0 0.426334 
-68.057 -5.545 -0.001 -0.144604 1.37648 0 
-68.057 -5.545 4.001 -0.164114 1.5622 0 
-67.778 -5.447 -0.001 -0.496127 1.41244 0 
-67.778 -5.447 4.001 -0.0341864 0.0533998 0 
-67.602 3.061 -0.001 0 0 -0.349691 
-54.782 -6.439 4.001 0 0 0.22813 
0.006 2.665 4.001 0 0 1.47386 
-67.564 -5.31 -0.001 -1.2624 0.934742 0 
-51.424 -7.001 4.001 0 0 1.40175 
-74.001 3.061 -0.001 0 0 -0.576202 
-67.202 -4.469 4.001 -1.54274 0.295543 0 
-64.442 -0.604 -0.001 0 0 -1.1582 
0.372 -2.529 -0.001 0 0 -0.400257 
-1.835 -0.22 -0.001 0 0 -1.59372 
0.572 -1.575 -0.001 0 0 -0.335086 
-70.552 -5.624 -0.001 0 0.410758 0 
0.098 1.585 4.001 0 0 0.741285 
1.534 -0.605 4.001 0 0 1.36337 
-50.908 -4.295 4.001 0 0 1.45699 
-2.594 -6.001 -0.001 0 0 -0.847946 
-47.663 -5.715 4.001 0 0 1.31908 
-46.705 -4.192 4.001 0 0 1.27501 
-49.935 -3.313 4.001 0 0 1.31411 
-50.312 -3.919 4.001 0 0 1.61008 
-70.552 -1.277 -0.001 1.08814 0 0 
-70.552 -1.277 4.001 1.5708 0 0 
-15.096 0.33 -0.001 0 0 -1.5708 
-70.552 -3.383 -0.001 1.06033 0 0 
-0.737 2.896 4.001 0 0 1.26039 
-53.59 -2.498 4.001 0 0 1.5248 
-53.59 4.25 4.001 0 0 0.477568 
-57.001 -2.341 4.001 0 0 1.13922 
-36.515 0.33 -0.001 0 0 -1.5708 
-64.176 -6.401 -0.001 0 0 -1.35142 
-67.202 -4.469 -0.001 0 0 -0.234883 
-56.684 -4.211 4.001 0 0 1.32599 
-55.955 -5.485 4.001 0 0 1.18488 
2.983 0.851 -0.001 0 0 -0.155493 
-1.624 2.541 4.001 0 0 0.553577 
-5.001 1.666 4.001 0 0 1.1978 
-2.495 -2.529 4.001 0 0 1.5708 
-1.835 -0.22 4.001 0 0 1.24573 
0.572 -1.575 4.001 0 0 0.72374 
-2.33 -1.054 4.001 0 0 1.21279 
2.983 0.851 4.001 1.51017 -0.432176 0 
2.994 3.481 4.001 0.33422 0.0822954 0 
3.337 2.088 4.001 1.52524 0.375561 0 
3.337 2.088 -0.001 0 0 -1.27036 
1.964 4.563 4.001 0.258763 0.246327 0 
2.994 3.481 -0.001 0.258763 0.246327 0 
0.794 5.078 -0.001 0.632826 1.43768 0 
1.964 4.563 -0.001 0.124559 0.282978 0 
-2.594 -3.292 4.001 -0.975735 0 0 
-2.594 -6.001 4.001 -1.5708 0 0 
1.534 -0.605 -0.001 0.336128 -0.334512 0 
0.098 1.585 -0.001 -0.118123 0.113418 0 
-0.36 1.108 -0.001 0 0 -1.54098 
0.251 2.021 -0.001 -1.46814 -0.558532 0 
-0.737 2.896 -0.001 0 0 -0.592718 
0.477 -3.292 4.001 1.5708 0 0 
-67.56 -3.681 -0.001 0 0 -1.77218 
-67.773 -3.55 -0.001 0 0 -1.25829 
0.006 2.665 -0.001 0 0 -1.58501 
-0.692 5.25 4.001 0.13948 1.20504 0 
0.794 5.078 4.001 0.180609 1.56038 0 
-0.36 1.108 4.001 -0.742975 0.825217 0 
-67.718 -0.665 -0.001 0 0 -1.6497 
-64.901 -1.376 -0.001 0 0 -0.156469 
-70.552 0.82 4.001 0 0 1.91574 
-1.912 2.054 -0.001 0 0 -1.23439 
-4.632 3.123 -0.001 0 0 -1.33126 
-0.692 5.25 -0.001 0 0 -1.41877 
-2.532 5.004 -0.001 0 0 -0.998329 
-2.33 -1.054 -0.001 -1.35079 0.801728 0 
-11.611 0.33 -0.001 0 0 -1.5708 
-22.001 3.061 -0.001 0 0 -0.664549 
-11.611 3.061 -0.001 0 0 -0.37668 
-53.59 -2.498 -0.001 0 0 -1.5248 
-2.495 -2.529 -0.001 -1.5708 0 0 
-2.495 -2.243 -0.001 -0.0713426 0 0 
-2.495 -2.243 4.001 -1.5708 0 0 
-68.388 -1.209 -0.001 0 0 -1.27601 
-68.817 -3.383 -0.001 0 0 -0.312517 
-69.066 -1.277 -0.001 0 0 -0.732164 
0.372 -2.529 4.001 0 -0.949154 0 
-2.532 5.004 4.001 -0.778539 1.36429 0 
-50.908 -4.295 -0.001 0 0 -0.386529 
-49.81 4.25 -0.001 0 0 -0.477569 
-65.058 -2.505 4.001 0 0 1.85291 
-63.876 -5.671 4.001 0 0 1.39051 
-67.293 -4.944 4.001 0 0 0.227626 
-4.632 3.123 4.001 -0.274544 0.193527 0 
-3.827 4.265 -0.001 -0.274544 0.193527 0 
-3.827 4.265 4.001 -1.28388 0.905013 0 
-68.054 -3.457 -0.001 0 0 -1.32662 
-68.14 -1.123 -0.001 0 0 -1.27383 
-67.953 -1.002 -0.001 0 0 -1.06701 
-67.816 -0.849 -0.001 0 0 -1.6674 
-65.058 -2.505 -0.001 0 0 -0.958414 
-66.093 -2.115 -0.001 0 0 -1.77054 
-54.782 -6.439 -0.001 0 0 -1.02653 
-68.809 -5.624 -0.001 0 0 -1.38559 
0.477 -3.292 -0.001 0 1.5708 0 
-2.594 -3.292 -0.001 0 0.654523 0 
-66.568 -7.85 -0.001 0 0 -0.107076 
-2.073 1.304 -0.001 -0.11479 -0.928466 0 
-5.001 1.666 -0.001 -0.192736 -1.55893 0 
-65.27 -7.487 -0.001 0 0 -0.13956 
-49.032 -6.631 4.001 0.384897 -1.52291 0 
-50.128 -6.908 4.001 0.317439 -1.256 0 
-67.293 -4.944 -0.001 0 0 -1.59115 
-64.901 -1.376 4.001 0 0 0.156469 
-64.289 0.307 4.001 0 0 0.127709 
-67.718 0.224 4.001 0 0 1.41555 
-68.382 0.752 4.001 -0.49553 -1.42248 0 
-68.382 0.752 -0.001 -0.0168379 -0.163674 0 
-69.043 0.82 -0.001 -0.160748 -1.56255 0 
-53.088 -3.911 -0.001 1.33499 0.827777 0 
-53.088 -3.911 4.001 0.150336 0.0932178 0 
-52.489 -4.293 -0.001 0.750139 1.17627 0 
-51.696 -4.42 -0.001 0.217082 1.35548 0 
-52.489 -4.293 4.001 0.217082 1.35548 0 
-66.568 -7.85 4.001 0.423057 -1.51275 0 
-51.696 -4.42 4.001 -0.0308301 0.194353 0 
-64.65 -7.016 -0.001 0.950212 -1.2508 0 
-50.312 -3.919 -0.001 -0.0929998 0.147415 0 
-63.876 -5.671 -0.001 0.20134 -0.0246435 0 
-63.776 -4.854 4.001 1.31737 0.192086 0 
-63.776 -4.854 -0.001 1.55436 0.226642 0 
-64.442 -0.604 4.001 1.35018 -0.80276 0 
-64.338 -3.1 -0.001 0.193485 0.103503 0 
-64.338 -3.1 4.001 1.38507 0.74093 0 
-63.917 -3.887 4.001 1.19159 0.637427 0 
-63.917 -3.887 -0.001 1.38507 0.74093 0 
3 184 19 218 
3 19 43 218 
3 223 26 184 
3 15 0 223 
3 19 184 18 
3 23 1 15 
3 228 196 186 
3 228 186 229 
3 73 72 8 
3 2 73 8 
3 3 122 107 
3 4 107 125 
3 4 125 113 
3 193 179 5 
3 193 5 6 
3 106 42 43 
3 106 43 19 
3 122 125 107 
3 194 193 6 
3 194 6 9 
3 82 129 91 
3 15 223 121 
3 15 121 120 
3 84 129 82 
3 14 7 8 
3 7 9 8 
3 87 5 34 
3 123 38 34 
3 195 194 9 
3 195 9 7 
3 164 195 7 
3 164 7 14 
3 10 11 12 
3 207 106 19 
3 13 16 21 
3 56 164 14 
3 56 14 57 
3 23 15 120 
3 23 120 24 
3 13 11 10 
3 13 10 16 
3 40 39 20 
3 17 20 39 
3 18 207 19 
3 31 220 99 
3 99 94 31 
3 33 44 107 
3 33 107 4 
3 17 22 20 
3 16 10 12 
3 16 12 21 
3 25 101 220 
3 101 99 220 
3 20 22 41 
3 20 41 40 
3 23 24 88 
3 220 27 25 
3 18 26 207 
3 76 75 70 
3 76 70 69 
3 188 25 27 
3 27 28 188 
3 28 29 188 
3 22 77 41 
3 130 41 77 
3 175 127 30 
3 175 30 80 
3 4 90 33 
3 31 33 90 
3 61 12 11 
3 32 31 94 
3 31 32 33 
3 129 84 37 
3 129 37 133 
3 87 34 38 
3 35 36 151 
3 35 151 117 
3 37 81 134 
3 37 134 133 
3 33 32 38 
3 123 44 38 
3 198 103 134 
3 198 134 81 
3 33 38 44 
3 39 40 41 
3 198 43 103 
3 42 103 43 
3 156 126 136 
3 156 136 45 
3 66 102 107 
3 66 107 44 
3 45 136 46 
3 45 46 167 
3 47 50 210 
3 51 210 50 
3 167 46 48 
3 167 48 203 
3 50 49 52 
3 50 52 51 
3 54 55 172 
3 54 172 174 
3 49 92 64 
3 49 64 52 
3 210 51 211 
3 174 173 53 
3 174 53 54 
3 92 102 66 
3 92 66 64 
3 53 59 11 
3 13 54 11 
3 55 54 13 
3 53 11 54 
3 58 211 52 
3 51 52 211 
3 17 77 22 
3 62 56 57 
3 62 57 211 
3 65 58 64 
3 52 64 58 
3 8 186 197 
3 196 197 186 
3 123 34 122 
3 181 122 34 
3 11 59 60 
3 11 60 61 
3 96 62 211 
3 96 211 58 
3 66 166 63 
3 63 212 66 
3 64 66 65 
3 212 65 66 
3 34 5 181 
3 179 181 5 
3 55 13 124 
3 55 124 172 
3 78 67 74 
3 78 74 68 
3 71 108 72 
3 80 37 175 
3 77 76 69 
3 77 69 130 
3 68 70 75 
3 68 75 78 
3 158 71 72 
3 158 72 73 
3 67 17 39 
3 67 39 74 
3 75 76 77 
3 17 78 77 
3 67 78 17 
3 75 77 78 
3 158 73 2 
3 158 2 159 
3 59 53 173 
3 59 173 60 
3 159 2 79 
3 159 79 192 
3 80 215 81 
3 37 80 81 
3 84 175 37 
3 82 83 84 
3 85 89 95 
3 85 95 86 
3 192 79 87 
3 192 87 180 
3 128 83 82 
3 128 82 91 
3 180 87 125 
3 85 185 88 
3 85 88 89 
3 163 115 114 
3 31 90 220 
3 202 220 90 
3 91 129 128 
3 92 49 96 
3 24 95 88 
3 102 92 93 
3 205 27 202 
3 199 113 94 
3 24 120 119 
3 95 24 119 
3 89 88 95 
3 213 102 93 
3 96 93 92 
3 144 143 97 
3 114 142 97 
3 144 97 142 
3 98 199 94 
3 98 94 99 
3 214 102 213 
3 100 98 99 
3 100 99 101 
3 105 100 101 
3 105 101 25 
3 3 102 214 
3 109 56 47 
3 56 62 47 
3 216 103 219 
3 104 97 143 
3 146 104 143 
3 162 104 146 
3 208 105 25 
3 208 25 188 
3 106 221 42 
3 110 171 112 
3 107 102 3 
3 132 208 188 
3 132 188 108 
3 165 56 109 
3 116 221 106 
3 219 42 221 
3 71 132 108 
3 207 206 116 
3 106 207 116 
3 50 47 62 
3 176 177 110 
3 110 177 171 
3 111 112 171 
3 113 32 94 
3 142 114 115 
3 140 115 163 
3 206 118 121 
3 121 116 206 
3 87 38 125 
3 117 201 200 
3 117 200 35 
3 118 119 120 
3 120 121 118 
3 3 166 122 
3 123 122 166 
3 12 61 21 
3 124 21 61 
3 32 113 125 
3 32 125 38 
3 104 162 126 
3 161 126 162 
3 127 128 129 
3 39 41 130 
3 231 132 228 
3 226 132 231 
3 222 208 131 
3 205 208 222 
3 224 132 226 
3 136 126 183 
3 161 183 126 
3 42 219 103 
3 133 134 30 
3 129 133 127 
3 30 127 133 
3 216 30 134 
3 103 216 134 
3 155 135 153 
3 183 191 136 
3 46 136 191 
3 191 189 46 
3 189 137 46 
3 48 46 137 
3 142 152 135 
3 178 138 182 
3 140 141 182 
3 139 140 163 
3 139 141 140 
3 178 182 141 
3 144 142 135 
3 160 147 155 
3 152 153 135 
3 150 151 157 
3 36 157 151 
3 144 135 145 
3 145 147 143 
3 145 143 144 
3 148 149 160 
3 149 147 160 
3 147 145 155 
3 135 155 145 
3 147 149 146 
3 147 146 143 
3 149 148 162 
3 149 162 146 
3 111 154 112 
3 152 112 154 
3 150 201 117 
3 150 117 151 
3 142 115 152 
3 153 154 163 
3 153 163 114 
3 152 154 153 
3 152 115 140 
3 152 140 112 
3 155 153 114 
3 155 114 97 
3 112 140 110 
3 160 155 97 
3 160 97 104 
3 45 170 156 
3 169 148 156 
3 36 35 200 
3 36 200 157 
3 158 159 197 
3 126 156 104 
3 160 104 156 
3 49 50 62 
3 164 197 195 
3 204 168 167 
3 160 156 148 
3 140 182 110 
3 161 162 148 
3 111 139 163 
3 62 96 49 
3 164 56 165 
3 197 164 165 
3 123 166 44 
3 44 166 66 
3 203 204 167 
3 168 190 167 
3 45 167 190 
3 170 45 190 
3 169 156 170 
3 111 171 141 
3 111 141 139 
3 172 124 174 
3 124 61 174 
3 173 174 61 
3 173 61 60 
3 158 197 71 
3 161 148 169 
3 171 177 178 
3 171 178 141 
3 74 39 68 
3 39 130 68 
3 70 68 130 
3 70 130 69 
3 159 192 193 
3 209 227 57 
3 210 57 227 
3 175 84 83 
3 177 176 138 
3 177 138 178 
3 181 179 180 
3 170 183 169 
3 161 169 183 
3 85 86 185 
3 180 125 181 
3 182 138 176 
3 182 176 110 
3 170 190 191 
3 170 191 183 
3 26 223 0 
3 0 15 1 
3 18 184 26 
3 86 1 23 
3 23 185 86 
3 186 72 229 
3 230 229 108 
3 29 187 188 
3 108 188 187 
3 187 225 108 
3 225 230 108 
3 190 168 189 
3 190 189 191 
3 198 81 215 
3 122 181 125 
3 192 180 179 
3 179 193 192 
3 193 194 159 
3 194 197 159 
3 195 197 194 
3 196 71 197 
3 228 71 196 
3 217 198 215 
3 168 204 137 
3 168 137 189 
3 218 43 217 
3 43 198 217 
3 98 90 199 
3 199 90 113 
3 87 79 5 
3 6 5 79 
3 157 200 201 
3 157 201 150 
3 100 202 98 
3 13 21 124 
3 203 48 137 
3 203 137 204 
3 128 127 83 
3 175 83 127 
3 4 113 90 
3 105 202 100 
3 79 2 6 
3 185 23 88 
3 111 163 154 
3 9 6 2 
3 2 8 9 
3 208 205 105 
3 206 207 26 
3 132 224 208 
3 90 98 202 
3 26 0 118 
3 26 118 206 
3 96 58 65 
3 96 65 93 
3 0 1 119 
3 0 119 118 
3 8 209 14 
3 14 209 57 
3 210 211 57 
3 71 228 132 
3 224 131 208 
3 202 105 205 
3 93 65 212 
3 93 212 213 
3 1 86 95 
3 1 95 119 
3 108 229 72 
3 213 212 63 
3 213 63 214 
3 215 80 216 
3 30 216 80 
3 186 8 72 
3 214 63 166 
3 214 166 3 
3 217 215 216 
3 217 216 219 
3 218 217 219 
3 218 219 221 
3 220 202 27 
3 184 218 221 
3 184 221 116 
3 205 222 28 
3 205 28 27 
3 223 184 116 
3 223 116 121 
3 222 131 29 
3 222 29 28 
3 131 224 187 
3 131 187 29 
3 224 226 225 
3 224 225 187 
3 109 47 227 
3 210 227 47 
3 231 230 225 
3 231 225 226 
3 8 197 209 
3 165 209 197 
3 109 227 209 
3 109 209 165 
3 228 229 230 
3 228 230 231 
