ply
format ascii 1.0
comment VCGLIB generated
element vertex 12
property float x
property float y
property float z
property float nx
property float ny
property float nz
property uchar red
property uchar green
property uchar blue
property uchar alpha
element face 20
property list uchar int vertex_indices
end_header
5.5 -15.999 41 5.96046e-08 2.74032 2.11965 192 192 192 255 
-11.001 -25.25 41 -2.33895 1.37016 2.08177 192 192 192 255 
-11.001 -43.75 41 -2.33895 -1.37016 2.08177 192 192 192 255 
5.5 -53.001 41 0 -2.74032 2.11965 192 192 192 255 
22.001 -43.75 41 2.33895 -1.37016 2.08177 192 192 192 255 
22.001 -25.25 41 2.33895 1.37016 2.08177 192 192 192 255 
5.5 -53.001 -0.001 0 -2.74032 -2.11965 192 192 192 255 
22.001 -43.75 -0.001 2.33895 -1.37016 -2.08177 192 192 192 255 
22.001 -25.25 -0.001 2.33895 1.37016 -2.08177 192 192 192 255 
5.5 -15.999 -0.001 -7.45058e-08 2.74032 -2.11965 192 192 192 255 
-11.001 -43.75 -0.001 -2.33895 -1.37016 -2.08177 192 192 192 255 
-11.001 -25.25 -0.001 -2.33895 1.37016 -2.08177 192 192 192 255 
3 2 3 1 
3 0 1 3 
3 4 5 3 
3 0 3 5 
3 4 3 6 
3 4 6 7 
3 5 4 7 
3 5 7 8 
3 8 9 0 
3 8 0 5 
3 10 11 6 
3 11 9 6 
3 9 8 6 
3 7 6 8 
3 11 10 2 
3 11 2 1 
3 3 2 10 
3 3 10 6 
3 9 11 1 
3 9 1 0 
