solid OBJECT
  facet normal -0.97870240564872657 0.20108381811766102 0.041314637462026148
    outer loop
      vertex -1.9369080066680908 0.63220429420471191 -1.9511939287185669
      vertex -1.9369080066680908 0.69952112436294556 -2.2788338661193848
      vertex -2.1076433658599854 -0.131471186876297 -2.2788338661193848
    endloop
  endfacet
  facet normal -0.8196777678630085 0.56110418012927488 0.11528423965386575
    outer loop
      vertex -1.4755399227142334 1.2515870332717896 -1.6854598522186279
      vertex -1.4755399227142334 1.3735014200210571 -2.2788338661193848
      vertex -1.9369080066680908 0.69952112436294556 -2.2788338661193848
    endloop
  endfacet
  facet normal -0.81967780158158432 0.56110411257144843 0.11528432872592875
    outer loop
      vertex -1.4755399227142334 1.2515870332717896 -1.6854598522186279
      vertex -1.9369080066680908 0.69952112436294556 -2.2788338661193848
      vertex -1.9369080066680908 0.63220429420471191 -1.9511939287185669
    endloop
  endfacet
  facet normal -0.54147592653416976 0.82351414701791692 0.1691989085228254
    outer loop
      vertex -0.79693633317947388 1.6616363525390625 -1.5095362663269043
      vertex -0.79693633317947388 1.8196959495544434 -2.2788338661193848
      vertex -1.4755399227142334 1.3735014200210571 -2.2788338661193848
    endloop
  endfacet
  facet normal -0.54147591064614775 0.82351416145508383 0.16919888910053568
    outer loop
      vertex -0.79693633317947388 1.6616363525390625 -1.5095362663269043
      vertex -1.4755399227142334 1.3735014200210571 -2.2788338661193848
      vertex -1.4755399227142334 1.2515870332717896 -1.6854598522186279
    endloop
  endfacet
  facet normal -0.18886826932542239 0.96190940880947684 0.19763366637752386
    outer loop
      vertex 0 1.8054367303848267 -1.4478415250778198
      vertex 0 1.9761722087860107 -2.2788338661193848
      vertex -0.79693633317947388 1.8196959495544434 -2.2788338661193848
    endloop
  endfacet
  facet normal -0.18886815396444337 0.96190945403151484 0.19763355652028433
    outer loop
      vertex 0 1.8054367303848267 -1.4478415250778198
      vertex -0.79693633317947388 1.8196959495544434 -2.2788338661193848
      vertex -0.79693633317947388 1.6616363525390625 -1.5095362663269043
    endloop
  endfacet
  facet normal 0.19729974518909066 0.96028416985681186 0.19729957848595056
    outer loop
      vertex 0.83099234104156494 1.6485322713851929 -1.5151582956314087
      vertex 0.83099234104156494 1.8054367303848267 -2.2788338661193848
      vertex 0 1.9761722087860107 -2.2788338661193848
    endloop
  endfacet
  facet normal 0.19729959146450582 0.96028416729824961 0.1972997446634091
    outer loop
      vertex 0.83099234104156494 1.6485322713851929 -1.5151582956314087
      vertex 0 1.9761722087860107 -2.2788338661193848
      vertex 0 1.8054367303848267 -1.4478415250778198
    endloop
  endfacet
  facet normal 0.55692284173472817 0.81356982584199977 0.1671558758570369
    outer loop
      vertex 1.5049726963043213 1.2245385646820068 -1.6970645189285278
      vertex 1.5049726963043213 1.3440687656402588 -2.2788338661193848
      vertex 0.83099234104156494 1.8054367303848267 -2.2788338661193848
    endloop
  endfacet
  facet normal 0.55692295486471555 0.81356978392657087 0.16715570294317464
    outer loop
      vertex 1.5049726963043213 1.2245385646820068 -1.6970645189285278
      vertex 0.83099234104156494 1.8054367303848267 -2.2788338661193848
      vertex 0.83099234104156494 1.6485322713851929 -1.5151582956314087
    endloop
  endfacet
  facet normal 0.83028851579312957 0.54593005462463529 0.11216664388125699
    outer loop
      vertex 1.951167106628418 0.60090714693069458 -1.9646213054656982
      vertex 1.951167106628418 0.66546517610549927 -2.2788338661193848
      vertex 1.5049726963043213 1.3440687656402588 -2.2788338661193848
    endloop
  endfacet
  facet normal 0.83028850831433099 0.545930060810773 0.11216666913262899
    outer loop
      vertex 1.951167106628418 0.60090714693069458 -1.9646213054656982
      vertex 1.5049726963043213 1.3440687656402588 -2.2788338661193848
      vertex 1.5049726963043213 1.2245385646820068 -1.6970645189285278
    endloop
  endfacet
  facet normal 0.98049598269702343 0.19251768483742082 0.039554632343607579
    outer loop
      vertex 2.1076433658599854 -0.131471186876297 -2.2788338661193848
      vertex 1.951167106628418 0.66546517610549927 -2.2788338661193848
      vertex 1.951167106628418 0.60090714693069458 -1.9646213054656982
    endloop
  endfacet
  facet normal -0.97876582720130367 0.16914666794438787 0.11578799690062319
    outer loop
      vertex -1.9369080066680908 0.45029816031455994 -1.6854598522186279
      vertex -1.9369080066680908 0.63220429420471191 -1.9511939287185669
      vertex -2.1076433658599854 -0.131471186876297 -2.2788338661193848
    endloop
  endfacet
  facet normal -0.82009165675442386 0.47219433172832426 0.32323704553380833
    outer loop
      vertex -1.4755399227142334 0.92214500904083252 -1.2042011022567749
      vertex -1.4755399227142334 1.2515870332717896 -1.6854598522186279
      vertex -1.9369080066680908 0.63220429420471191 -1.9511939287185669
    endloop
  endfacet
  facet normal -0.82009160442678231 0.47219448562318339 0.32323695348113157
    outer loop
      vertex -1.4755399227142334 0.92214500904083252 -1.2042011022567749
      vertex -1.9369080066680908 0.63220429420471191 -1.9511939287185669
      vertex -1.9369080066680908 0.45029816031455994 -1.6854598522186279
    endloop
  endfacet
  facet normal -0.54206531209602149 0.69342841622369134 0.47468118668822951
    outer loop
      vertex -0.79693633317947388 1.2345212697982788 -0.88559383153915405
      vertex -0.79693633317947388 1.6616363525390625 -1.5095362663269043
      vertex -1.4755399227142334 1.2515870332717896 -1.6854598522186279
    endloop
  endfacet
  facet normal -0.54206529604168274 0.69342843778255314 0.47468117352775863
    outer loop
      vertex -0.79693633317947388 1.2345212697982788 -0.88559383153915405
      vertex -1.4755399227142334 1.2515870332717896 -1.6854598522186279
      vertex -1.4755399227142334 0.92214500904083252 -1.2042011022567749
    endloop
  endfacet
  facet normal -0.18914882600823912 0.81028391927094046 0.55467350016981065
    outer loop
      vertex 0 1.3440687656402588 -0.77386116981506348
      vertex 0 1.8054367303848267 -1.4478415250778198
      vertex -0.79693633317947388 1.6616363525390625 -1.5095362663269043
    endloop
  endfacet
  facet normal -0.18914901353241254 0.81028377814150554 0.55467364238842531
    outer loop
      vertex 0 1.3440687656402588 -0.77386116981506348
      vertex -0.79693633317947388 1.6616363525390625 -1.5095362663269043
      vertex -0.79693633317947388 1.2345212697982788 -0.88559383153915405
    endloop
  endfacet
  facet normal 0.19759178168500507 0.80891069437420626 0.55373366913849897
    outer loop
      vertex 0.83099234104156494 1.2245385646820068 -0.89577561616897583
      vertex 0.83099234104156494 1.6485322713851929 -1.5151582956314087
      vertex 0 1.8054367303848267 -1.4478415250778198
    endloop
  endfacet
  facet normal 0.19759193072470049 0.80891076248172189 0.55373351646231828
    outer loop
      vertex 0.83099234104156494 1.2245385646820068 -0.89577561616897583
      vertex 0 1.8054367303848267 -1.4478415250778198
      vertex 0 1.3440687656402588 -0.77386116981506348
    endloop
  endfacet
  facet normal 0.55751462538024799 0.68503700375917542 0.46893682513508489
    outer loop
      vertex 1.5049726963043213 0.90153944492340088 -1.2252177000045776
      vertex 1.5049726963043213 1.2245385646820068 -1.6970645189285278
      vertex 0.83099234104156494 1.6485322713851929 -1.5151582956314087
    endloop
  endfacet
  facet normal 0.5575145972746911 0.6850369958531326 0.468936870098902
    outer loop
      vertex 1.5049726963043213 0.90153944492340088 -1.2252177000045776
      vertex 0.83099234104156494 1.6485322713851929 -1.5151582956314087
      vertex 0.83099234104156494 1.2245385646820068 -0.89577561616897583
    endloop
  endfacet
  facet normal 0.8306853254986295 0.45941233326902092 0.31448719853366081
    outer loop
      vertex 1.951167106628418 0.42645591497421265 -1.7097777128219604
      vertex 1.951167106628418 0.60090714693069458 -1.9646213054656982
      vertex 1.5049726963043213 1.2245385646820068 -1.6970645189285278
    endloop
  endfacet
  facet normal 0.83068532815634155 0.45941233490479527 0.31448718912400137
    outer loop
      vertex 1.951167106628418 0.42645591497421265 -1.7097777128219604
      vertex 1.5049726963043213 1.2245385646820068 -1.6970645189285278
      vertex 1.5049726963043213 0.90153944492340088 -1.2252177000045776
    endloop
  endfacet
  facet normal 0.98055422129496383 0.16194015015144375 0.11085489104931288
    outer loop
      vertex 2.1076433658599854 -0.131471186876297 -2.2788338661193848
      vertex 1.951167106628418 0.60090714693069458 -1.9646213054656982
      vertex 1.951167106628418 0.42645591497421265 -1.7097777128219604
    endloop
  endfacet
  facet normal -0.97877486497643618 0.11259259246528247 0.17123863995110947
    outer loop
      vertex -1.9369080066680908 0.18274134397506714 -1.5095362663269043
      vertex -1.9369080066680908 0.45029816031455994 -1.6854598522186279
      vertex -2.1076433658599854 -0.131471186876297 -2.2788338661193848
    endloop
  endfacet
  facet normal -0.82015061190627203 0.31433630670929469 0.4780644936346225
    outer loop
      vertex -1.4755399227142334 0.43758493661880493 -0.88559383153915405
      vertex -1.4755399227142334 0.92214500904083252 -1.2042011022567749
      vertex -1.9369080066680908 0.45029816031455994 -1.6854598522186279
    endloop
  endfacet
  facet normal -0.82015061337756756 0.31433630170084181 0.47806449440367033
    outer loop
      vertex -1.4755399227142334 0.43758493661880493 -0.88559383153915405
      vertex -1.9369080066680908 0.45029816031455994 -1.6854598522186279
      vertex -1.9369080066680908 0.18274134397506714 -1.5095362663269043
    endloop
  endfacet
  facet normal -0.54214941248974191 0.46164860564697208 0.70210724212276454
    outer loop
      vertex -0.79693633317947388 0.60629874467849731 -0.47252580523490906
      vertex -0.79693633317947388 1.2345212697982788 -0.88559383153915405
      vertex -1.4755399227142334 0.92214500904083252 -1.2042011022567749
    endloop
  endfacet
  facet normal -0.54214942398537325 0.46164858770853778 0.70210724504098421
    outer loop
      vertex -0.79693633317947388 0.60629874467849731 -0.47252580523490906
      vertex -1.4755399227142334 0.92214500904083252 -1.2042011022567749
      vertex -1.4755399227142334 0.43758493661880493 -0.88559383153915405
    endloop
  endfacet
  facet normal -0.18918909459540184 0.53947538341355716 0.82047169188032787
    outer loop
      vertex 0 0.66546517610549927 -0.32766669988632202
      vertex 0 1.3440687656402588 -0.77386116981506348
      vertex -0.79693633317947388 1.2345212697982788 -0.88559383153915405
    endloop
  endfacet
  facet normal -0.18918905080851706 0.53947542671774507 0.82047167350364958
    outer loop
      vertex 0 0.66546517610549927 -0.32766669988632202
      vertex -0.79693633317947388 1.2345212697982788 -0.88559383153915405
      vertex -0.79693633317947388 0.60629874467849731 -0.47252580523490906
    endloop
  endfacet
  facet normal 0.19763365257471482 0.53856080238823578 0.81908070512063491
    outer loop
      vertex 0.83099234104156494 0.60090714693069458 -0.48572635650634766
      vertex 0.83099234104156494 1.2245385646820068 -0.89577561616897583
      vertex 0 1.3440687656402588 -0.77386116981506348
    endloop
  endfacet
  facet normal 0.19763363855765853 0.53856079094348264 0.81908071602790833
    outer loop
      vertex 0.83099234104156494 0.60090714693069458 -0.48572635650634766
      vertex 0 1.3440687656402588 -0.77386116981506348
      vertex 0 0.66546517610549927 -0.32766669988632202
    endloop
  endfacet
  facet normal 0.55759904766170287 0.45606034889665964 0.69360814600970422
    outer loop
      vertex 1.5049726963043213 0.42645591497421265 -0.91284137964248657
      vertex 1.5049726963043213 0.90153944492340088 -1.2252177000045776
      vertex 0.83099234104156494 1.2245385646820068 -0.89577561616897583
    endloop
  endfacet
  facet normal 0.55759899795053935 0.45606030545019732 0.69360821453989929
    outer loop
      vertex 1.5049726963043213 0.42645591497421265 -0.91284137964248657
      vertex 0.83099234104156494 1.2245385646820068 -0.89577561616897583
      vertex 0.83099234104156494 0.60090714693069458 -0.48572635650634766
    endloop
  endfacet
  facet normal 0.83074189211769822 0.30582617433602893 0.46512176875705896
    outer loop
      vertex 1.951167106628418 0.16986419260501862 -1.5410639047622681
      vertex 1.951167106628418 0.42645591497421265 -1.7097777128219604
      vertex 1.5049726963043213 0.90153944492340088 -1.2252177000045776
    endloop
  endfacet
  facet normal 0.83074191788860718 0.30582622402461385 0.46512169005713483
    outer loop
      vertex 1.951167106628418 0.16986419260501862 -1.5410639047622681
      vertex 1.5049726963043213 0.90153944492340088 -1.2252177000045776
      vertex 1.5049726963043213 0.42645591497421265 -0.91284137964248657
    endloop
  endfacet
  facet normal 0.98056251779254866 0.10779550062267559 0.1639429130698995
    outer loop
      vertex 2.1076433658599854 -0.131471186876297 -2.2788338661193848
      vertex 1.951167106628418 0.42645591497421265 -1.7097777128219604
      vertex 1.951167106628418 0.16986419260501862 -1.5410639047622681
    endloop
  endfacet
  facet normal -0.97877486464206542 0.039485160326589892 0.20109869830232568
    outer loop
      vertex -1.9369080066680908 -0.131471186876297 -1.4478415250778198
      vertex -1.9369080066680908 0.18274134397506714 -1.5095362663269043
      vertex -2.1076433658599854 -0.131471186876297 -2.2788338661193848
    endloop
  endfacet
  facet normal -0.82015061417563173 0.11023487256998862 0.56142786084840179
    outer loop
      vertex -1.4755399227142334 -0.131471186876297 -0.77386116981506348
      vertex -1.4755399227142334 0.43758493661880493 -0.88559383153915405
      vertex -1.9369080066680908 0.18274134397506714 -1.5095362663269043
    endloop
  endfacet
  facet normal -0.82015064578198871 0.11023476671954754 0.56142783546033215
    outer loop
      vertex -1.4755399227142334 -0.131471186876297 -0.77386116981506348
      vertex -1.9369080066680908 0.18274134397506714 -1.5095362663269043
      vertex -1.9369080066680908 -0.131471186876297 -1.4478415250778198
    endloop
  endfacet
  facet normal -0.54214943712578134 0.16189587325840032 0.82453848548512176
    outer loop
      vertex -0.79693633317947388 -0.131471186876297 -0.32766669988632202
      vertex -0.79693633317947388 0.60629874467849731 -0.47252580523490906
      vertex -1.4755399227142334 0.43758493661880493 -0.88559383153915405
    endloop
  endfacet
  facet normal -0.54214938738840934 0.16189594988338085 0.82453850314326138
    outer loop
      vertex -0.79693633317947388 -0.131471186876297 -0.32766669988632202
      vertex -1.4755399227142334 0.43758493661880493 -0.88559383153915405
      vertex -1.4755399227142334 -0.131471186876297 -0.77386116981506348
    endloop
  endfacet
  facet normal -0.18918902668920279 0.18918900520441922 0.96354295830033143
    outer loop
      vertex 0 -0.131471186876297 -0.17119044065475464
      vertex 0 0.66546517610549927 -0.32766669988632202
      vertex -0.79693633317947388 0.60629874467849731 -0.47252580523490906
    endloop
  endfacet
  facet normal -0.18918901223799062 0.18918902072852306 0.96354295808967239
    outer loop
      vertex 0 -0.131471186876297 -0.17119044065475464
      vertex -0.79693633317947388 0.60629874467849731 -0.47252580523490906
      vertex -0.79693633317947388 -0.131471186876297 -0.32766669988632202
    endloop
  endfacet
  facet normal 0.1976336340065766 0.18886830044186911 0.96190940935077374
    outer loop
      vertex 0.83099234104156494 -0.131471186876297 -0.34192585945129395
      vertex 0.83099234104156494 0.60090714693069458 -0.48572635650634766
      vertex 0 0.66546517610549927 -0.32766669988632202
    endloop
  endfacet
  facet normal 0.19763360034109459 0.18886826508978191 0.96190942320895922
    outer loop
      vertex 0.83099234104156494 -0.131471186876297 -0.34192585945129395
      vertex 0 0.66546517610549927 -0.32766669988632202
      vertex 0 -0.131471186876297 -0.17119044065475464
    endloop
  endfacet
  facet normal 0.55759898977807398 0.15993608899320969 0.81455743446120932
    outer loop
      vertex 1.5049726963043213 -0.131471186876297 -0.80329394340515137
      vertex 1.5049726963043213 0.42645591497421265 -0.91284137964248657
      vertex 0.83099234104156494 0.60090714693069458 -0.48572635650634766
    endloop
  endfacet
  facet normal 0.55759902362681435 0.15993613402394674 0.81455740244865349
    outer loop
      vertex 1.5049726963043213 -0.131471186876297 -0.80329394340515137
      vertex 0.83099234104156494 0.60090714693069458 -0.48572635650634766
      vertex 0.83099234104156494 -0.131471186876297 -0.34192585945129395
    endloop
  endfacet
  facet normal 0.83074193225077519 0.10725049744933531 0.54622813255737601
    outer loop
      vertex 1.951167106628418 -0.131471186876297 -1.4818974733352661
      vertex 1.951167106628418 0.16986419260501862 -1.5410639047622681
      vertex 1.5049726963043213 0.42645591497421265 -0.91284137964248657
    endloop
  endfacet
  facet normal 0.83074189605104265 0.1072503910348654 0.54622820850665232
    outer loop
      vertex 1.951167106628418 -0.131471186876297 -1.4818974733352661
      vertex 1.5049726963043213 0.42645591497421265 -0.91284137964248657
      vertex 1.5049726963043213 -0.131471186876297 -0.80329394340515137
    endloop
  endfacet
  facet normal 0.98056251855335852 0.037802918960622926 0.19253074176959781
    outer loop
      vertex 2.1076433658599854 -0.131471186876297 -2.2788338661193848
      vertex 1.951167106628418 0.16986419260501862 -1.5410639047622681
      vertex 1.951167106628418 -0.131471186876297 -1.4818974733352661
    endloop
  endfacet
  facet normal -0.9787024087589975 -0.041314595772228437 0.20108381154511962
    outer loop
      vertex -1.9369080066680908 -0.45911115407943726 -1.5151582956314087
      vertex -1.9369080066680908 -0.131471186876297 -1.4478415250778198
      vertex -2.1076433658599854 -0.131471186876297 -2.2788338661193848
    endloop
  endfacet
  facet normal -0.81967778468138741 -0.11528430555758658 0.56110414201992653
    outer loop
      vertex -1.4755399227142334 -0.72484511137008667 -0.89577561616897583
      vertex -1.4755399227142334 -0.131471186876297 -0.77386116981506348
      vertex -1.9369080066680908 -0.131471186876297 -1.4478415250778198
    endloop
  endfacet
  facet normal -0.81967775738482429 -0.1152842334501086 0.56110419671074108
    outer loop
      vertex -1.4755399227142334 -0.72484511137008667 -0.89577561616897583
      vertex -1.9369080066680908 -0.131471186876297 -1.4478415250778198
      vertex -1.9369080066680908 -0.45911115407943726 -1.5151582956314087
    endloop
  endfacet
  facet normal -0.54147586776186563 -0.16919899622959717 0.82351416764159635
    outer loop
      vertex -0.79693633317947388 -0.9007686972618103 -0.48572635650634766
      vertex -0.79693633317947388 -0.131471186876297 -0.32766669988632202
      vertex -1.4755399227142334 -0.131471186876297 -0.77386116981506348
    endloop
  endfacet
  facet normal -0.54147586943556192 -0.16919899827560478 0.8235141661207378
    outer loop
      vertex -0.79693633317947388 -0.9007686972618103 -0.48572635650634766
      vertex -1.4755399227142334 -0.131471186876297 -0.77386116981506348
      vertex -1.4755399227142334 -0.72484511137008667 -0.89577561616897583
    endloop
  endfacet
  facet normal -0.18886827163621167 -0.19763360688845366 0.96190942057836726
    outer loop
      vertex 0 -0.96246349811553955 -0.34192585945129395
      vertex 0 -0.131471186876297 -0.17119044065475464
      vertex -0.79693633317947388 -0.131471186876297 -0.32766669988632202
    endloop
  endfacet
  facet normal -0.18886831061195605 -0.19763364400471248 0.96190940529969049
    outer loop
      vertex 0 -0.96246349811553955 -0.34192585945129395
      vertex -0.79693633317947388 -0.131471186876297 -0.32766669988632202
      vertex -0.79693633317947388 -0.9007686972618103 -0.48572635650634766
    endloop
  endfacet
  facet normal 0.19729967371641347 -0.19729971141524383 0.96028415722996197
    outer loop
      vertex 0.83099234104156494 -0.89514666795730591 -0.4988304078578949
      vertex 0.83099234104156494 -0.131471186876297 -0.34192585945129395
      vertex 0 -0.131471186876297 -0.17119044065475464
    endloop
  endfacet
  facet normal 0.19729970195524751 -0.19729968088884398 0.96028415769996478
    outer loop
      vertex 0.83099234104156494 -0.89514666795730591 -0.4988304078578949
      vertex 0 -0.131471186876297 -0.17119044065475464
      vertex 0 -0.96246349811553955 -0.34192585945129395
    endloop
  endfacet
  facet normal 0.55692294796402408 -0.16715578976014361 0.81356977081300386
    outer loop
      vertex 1.5049726963043213 -0.71324050426483154 -0.92282408475875854
      vertex 1.5049726963043213 -0.131471186876297 -0.80329394340515137
      vertex 0.83099234104156494 -0.131471186876297 -0.34192585945129395
    endloop
  endfacet
  facet normal 0.55692293053909903 -0.16715581639332378 0.8135697772690571
    outer loop
      vertex 1.5049726963043213 -0.71324050426483154 -0.92282408475875854
      vertex 0.83099234104156494 -0.131471186876297 -0.34192585945129395
      vertex 0.83099234104156494 -0.89514666795730591 -0.4988304078578949
    endloop
  endfacet
  facet normal 0.83028849214943612 -0.11216666117796481 0.54593008702983536
    outer loop
      vertex 1.951167106628418 -0.44568371772766113 -1.5464555025100708
      vertex 1.951167106628418 -0.131471186876297 -1.4818974733352661
      vertex 1.5049726963043213 -0.131471186876297 -0.80329394340515137
    endloop
  endfacet
  facet normal 0.83028850364040252 -0.11216662237993058 0.54593007752500633
    outer loop
      vertex 1.951167106628418 -0.44568371772766113 -1.5464555025100708
      vertex 1.5049726963043213 -0.131471186876297 -0.80329394340515137
      vertex 1.5049726963043213 -0.71324050426483154 -0.92282408475875854
    endloop
  endfacet
  facet normal 0.98049598396787119 -0.039554634667350042 0.1925176778875354
    outer loop
      vertex 2.1076433658599854 -0.131471186876297 -2.2788338661193848
      vertex 1.951167106628418 -0.131471186876297 -1.4818974733352661
      vertex 1.951167106628418 -0.44568371772766113 -1.5464555025100708
    endloop
  endfacet
  facet normal -0.97876582821293223 -0.11578806829228151 0.16914661321999544
    outer loop
      vertex -1.9369080066680908 -0.72484511137008667 -1.6970645189285278
      vertex -1.9369080066680908 -0.45911115407943726 -1.5151582956314087
      vertex -2.1076433658599854 -0.131471186876297 -2.2788338661193848
    endloop
  endfacet
  facet normal -0.82009160801973413 -0.3232370975485846 0.47219438076281006
    outer loop
      vertex -1.4755399227142334 -1.2061039209365845 -1.2252177000045776
      vertex -1.4755399227142334 -0.72484511137008667 -0.89577561616897583
      vertex -1.9369080066680908 -0.45911115407943726 -1.5151582956314087
    endloop
  endfacet
  facet normal -0.82009163135446705 -0.32323713859810532 0.47219431213566937
    outer loop
      vertex -1.4755399227142334 -1.2061039209365845 -1.2252177000045776
      vertex -1.9369080066680908 -0.45911115407943726 -1.5151582956314087
      vertex -1.9369080066680908 -0.72484511137008667 -1.6970645189285278
    endloop
  endfacet
  facet normal -0.54206528073648275 -0.47468109125492025 0.69342850606613826
    outer loop
      vertex -0.79693633317947388 -1.5247112512588501 -0.91284137964248657
      vertex -0.79693633317947388 -0.9007686972618103 -0.48572635650634766
      vertex -1.4755399227142334 -0.72484511137008667 -0.89577561616897583
    endloop
  endfacet
  facet normal -0.54206537050556625 -0.47468116484270578 0.6934283855180976
    outer loop
      vertex -0.79693633317947388 -1.5247112512588501 -0.91284137964248657
      vertex -1.4755399227142334 -0.72484511137008667 -0.89577561616897583
      vertex -1.4755399227142334 -1.2061039209365845 -1.2252177000045776
    endloop
  endfacet
  facet normal -0.1891489785404093 -0.5546735811611252 0.81028382822256317
    outer loop
      vertex 0 -1.6364438533782959 -0.80329394340515137
      vertex 0 -0.96246349811553955 -0.34192585945129395
      vertex -0.79693633317947388 -0.9007686972618103 -0.48572635650634766
    endloop
  endfacet
  facet normal -0.18914890954559105 -0.55467352883535503 0.81028388014759889
    outer loop
      vertex 0 -1.6364438533782959 -0.80329394340515137
      vertex -0.79693633317947388 -0.9007686972618103 -0.48572635650634766
      vertex -0.79693633317947388 -1.5247112512588501 -0.91284137964248657
    endloop
  endfacet
  facet normal 0.19759190471397844 -0.55373362862798647 0.80891069205319877
    outer loop
      vertex 0.83099234104156494 -1.5145293474197388 -0.92282408475875854
      vertex 0.83099234104156494 -0.89514666795730591 -0.4988304078578949
      vertex 0 -0.96246349811553955 -0.34192585945129395
    endloop
  endfacet
  facet normal 0.19759191765282369 -0.55373361537344012 0.80891069796593651
    outer loop
      vertex 0.83099234104156494 -1.5145293474197388 -0.92282408475875854
      vertex 0 -0.96246349811553955 -0.34192585945129395
      vertex 0 -1.6364438533782959 -0.80329394340515137
    endloop
  endfacet
  facet normal 0.55751456939569088 -0.46893690529651005 0.68503699444808741
    outer loop
      vertex 1.5049726963043213 -1.1850873231887817 -1.2458232641220093
      vertex 1.5049726963043213 -0.71324050426483154 -0.92282408475875854
      vertex 0.83099234104156494 -0.89514666795730591 -0.4988304078578949
    endloop
  endfacet
  facet normal 0.55751460795938146 -0.46893684360157623 0.68503700529598266
    outer loop
      vertex 1.5049726963043213 -1.1850873231887817 -1.2458232641220093
      vertex 0.83099234104156494 -0.89514666795730591 -0.4988304078578949
      vertex 0.83099234104156494 -1.5145293474197388 -0.92282408475875854
    endloop
  endfacet
  facet normal 0.8306853254986295 -0.31448719853366081 0.45941233326902092
    outer loop
      vertex 1.951167106628418 -0.70052731037139893 -1.7209067344665527
      vertex 1.951167106628418 -0.44568371772766113 -1.5464555025100708
      vertex 1.5049726963043213 -0.71324050426483154 -0.92282408475875854
    endloop
  endfacet
  facet normal 0.8306853135081036 -0.31448724098624786 0.4594123258890665
    outer loop
      vertex 1.951167106628418 -0.70052731037139893 -1.7209067344665527
      vertex 1.5049726963043213 -0.71324050426483154 -0.92282408475875854
      vertex 1.5049726963043213 -1.1850873231887817 -1.2458232641220093
    endloop
  endfacet
  facet normal 0.98055422166968575 -0.11085488999170731 0.1619401486064618
    outer loop
      vertex 2.1076433658599854 -0.131471186876297 -2.2788338661193848
      vertex 1.951167106628418 -0.44568371772766113 -1.5464555025100708
      vertex 1.951167106628418 -0.70052731037139893 -1.7209067344665527
    endloop
  endfacet
  facet normal -0.97877486162301353 -0.17123864757609808 0.11259261002019536
    outer loop
      vertex -1.9369080066680908 -0.9007686972618103 -1.9646213054656982
      vertex -1.9369080066680908 -0.72484511137008667 -1.6970645189285278
      vertex -2.1076433658599854 -0.131471186876297 -2.2788338661193848
    endloop
  endfacet
  facet normal -0.82015063298114099 -0.4780644236475764 0.31433635816294669
    outer loop
      vertex -1.4755399227142334 -1.5247112512588501 -1.7097777128219604
      vertex -1.4755399227142334 -1.2061039209365845 -1.2252177000045776
      vertex -1.9369080066680908 -0.72484511137008667 -1.6970645189285278
    endloop
  endfacet
  facet normal -0.82015065111783036 -0.47806443312764524 0.31433629642365829
    outer loop
      vertex -1.4755399227142334 -1.5247112512588501 -1.7097777128219604
      vertex -1.9369080066680908 -0.72484511137008667 -1.6970645189285278
      vertex -1.9369080066680908 -0.9007686972618103 -1.9646213054656982
    endloop
  endfacet
  facet normal -0.54214947719487672 -0.70210725310970623 0.46164851294904502
    outer loop
      vertex -0.79693633317947388 -1.9377791881561279 -1.5410639047622681
      vertex -0.79693633317947388 -1.5247112512588501 -0.91284137964248657
      vertex -1.4755399227142334 -1.2061039209365845 -1.2252177000045776
    endloop
  endfacet
  facet normal -0.54214934797200975 -0.70210722030586525 0.46164871459573686
    outer loop
      vertex -0.79693633317947388 -1.9377791881561279 -1.5410639047622681
      vertex -1.4755399227142334 -1.2061039209365845 -1.2252177000045776
      vertex -1.4755399227142334 -1.5247112512588501 -1.7097777128219604
    endloop
  endfacet
  facet normal -0.1891889957702797 -0.82047171911980976 0.53947537664291667
    outer loop
      vertex 0 -2.0826382637023926 -1.4818974733352661
      vertex 0 -1.6364438533782959 -0.80329394340515137
      vertex -0.79693633317947388 -1.5247112512588501 -0.91284137964248657
    endloop
  endfacet
  facet normal -0.18918902478307609 -0.82047173129603279 0.53947534794994945
    outer loop
      vertex 0 -2.0826382637023926 -1.4818974733352661
      vertex -0.79693633317947388 -1.5247112512588501 -0.91284137964248657
      vertex -0.79693633317947388 -1.9377791881561279 -1.5410639047622681
    endloop
  endfacet
  facet normal 0.19763367439791218 -0.81908066550720537 0.53856085462671144
    outer loop
      vertex 0.83099234104156494 -1.9245786666870117 -1.5464555025100708
      vertex 0.83099234104156494 -1.5145293474197388 -0.92282408475875854
      vertex 0 -1.6364438533782959 -0.80329394340515137
    endloop
  endfacet
  facet normal 0.19763358288526853 -0.81908073671712689 0.5385607799077653
    outer loop
      vertex 0.83099234104156494 -1.9245786666870117 -1.5464555025100708
      vertex 0 -1.6364438533782959 -0.80329394340515137
      vertex 0 -2.0826382637023926 -1.4818974733352661
    endloop
  endfacet
  facet normal 0.5575990309222717 -0.69360816908614142 0.4560603342667654
    outer loop
      vertex 1.5049726963043213 -1.497463583946228 -1.7209067344665527
      vertex 1.5049726963043213 -1.1850873231887817 -1.2458232641220093
      vertex 0.83099234104156494 -1.5145293474197388 -0.92282408475875854
    endloop
  endfacet
  facet normal 0.55759903518506815 -0.69360816320958862 0.45606033799235557
    outer loop
      vertex 1.5049726963043213 -1.497463583946228 -1.7209067344665527
      vertex 0.83099234104156494 -1.5145293474197388 -0.92282408475875854
      vertex 0.83099234104156494 -1.9245786666870117 -1.5464555025100708
    endloop
  endfacet
  facet normal 0.83074188350079359 -0.46512175504311387 0.30582621859998782
    outer loop
      vertex 1.951167106628418 -0.86924111843109131 -1.9774984121322632
      vertex 1.951167106628418 -0.70052731037139893 -1.7209067344665527
      vertex 1.5049726963043213 -1.1850873231887817 -1.2458232641220093
    endloop
  endfacet
  facet normal 0.83074189065740367 -0.46512173318805577 0.30582623239856577
    outer loop
      vertex 1.951167106628418 -0.86924111843109131 -1.9774984121322632
      vertex 1.5049726963043213 -1.1850873231887817 -1.2458232641220093
      vertex 1.5049726963043213 -1.497463583946228 -1.7209067344665527
    endloop
  endfacet
  facet normal 0.9805625179736468 -0.16394290369254116 0.10779551323705414
    outer loop
      vertex 2.1076433658599854 -0.131471186876297 -2.2788338661193848
      vertex 1.951167106628418 -0.70052731037139893 -1.7209067344665527
      vertex 1.951167106628418 -0.86924111843109131 -1.9774984121322632
    endloop
  endfacet
  facet normal -0.97877486183822271 -0.20109870493835957 0.03948519603196006
    outer loop
      vertex -1.9369080066680908 -0.96246349811553955 -2.2788338661193848
      vertex -1.9369080066680908 -0.9007686972618103 -1.9646213054656982
      vertex -2.1076433658599854 -0.131471186876297 -2.2788338661193848
    endloop
  endfacet
  facet normal -0.82015065582389957 -0.56142781447503243 0.11023479888590594
    outer loop
      vertex -1.4755399227142334 -1.6364438533782959 -2.2788338661193848
      vertex -1.4755399227142334 -1.5247112512588501 -1.7097777128219604
      vertex -1.9369080066680908 -0.9007686972618103 -1.9646213054656982
    endloop
  endfacet
  facet normal -0.82015063709866787 -0.56142782951623138 0.11023486159715037
    outer loop
      vertex -1.4755399227142334 -1.6364438533782959 -2.2788338661193848
      vertex -1.9369080066680908 -0.9007686972618103 -1.9646213054656982
      vertex -1.9369080066680908 -0.96246349811553955 -2.2788338661193848
    endloop
  endfacet
  facet normal -0.54214935692461241 -0.82453854379479197 0.16189584486018549
    outer loop
      vertex -0.79693633317947388 -2.0826382637023926 -2.2788338661193848
      vertex -0.79693633317947388 -1.9377791881561279 -1.5410639047622681
      vertex -1.4755399227142334 -1.5247112512588501 -1.7097777128219604
    endloop
  endfacet
  facet normal -0.54214934457716613 -0.8245385481784766 0.16189586388255686
    outer loop
      vertex -0.79693633317947388 -2.0826382637023926 -2.2788338661193848
      vertex -1.4755399227142334 -1.5247112512588501 -1.7097777128219604
      vertex -1.4755399227142334 -1.6364438533782959 -2.2788338661193848
    endloop
  endfacet
  facet normal -0.1891889916929119 -0.96354296625425895 0.18918899969121775
    outer loop
      vertex 0 -2.23911452293396 -2.2788338661193848
      vertex 0 -2.0826382637023926 -1.4818974733352661
      vertex -0.79693633317947388 -1.9377791881561279 -1.5410639047622681
    endloop
  endfacet
  facet normal -0.18918901390465925 -0.96354296657804506 0.18918897583041938
    outer loop
      vertex 0 -2.23911452293396 -2.2788338661193848
      vertex -0.79693633317947388 -1.9377791881561279 -1.5410639047622681
      vertex -0.79693633317947388 -2.0826382637023926 -2.2788338661193848
    endloop
  endfacet
  facet normal 0.19763356741963428 -0.96190942397686896 0.18886829562813567
    outer loop
      vertex 0.83099234104156494 -2.0683791637420654 -2.2788338661193848
      vertex 0.83099234104156494 -1.9245786666870117 -1.5464555025100708
      vertex 0 -2.0826382637023926 -1.4818974733352661
    endloop
  endfacet
  facet normal 0.19763353430466238 -0.96190943760843739 0.18886826085414093
    outer loop
      vertex 0.83099234104156494 -2.0683791637420654 -2.2788338661193848
      vertex 0 -2.0826382637023926 -1.4818974733352661
      vertex 0 -2.23911452293396 -2.2788338661193848
    endloop
  endfacet
  facet normal 0.55759904641612446 -0.81455738229237573 0.15993615722788121
    outer loop
      vertex 1.5049726963043213 -1.607011079788208 -2.2788338661193848
      vertex 1.5049726963043213 -1.497463583946228 -1.7209067344665527
      vertex 0.83099234104156494 -1.9245786666870117 -1.5464555025100708
    endloop
  endfacet
  facet normal 0.55759902420721752 -0.81455740329652393 0.15993612768221918
    outer loop
      vertex 1.5049726963043213 -1.607011079788208 -2.2788338661193848
      vertex 0.83099234104156494 -1.9245786666870117 -1.5464555025100708
      vertex 0.83099234104156494 -2.0683791637420654 -2.2788338661193848
    endloop
  endfacet
  facet normal 0.83074189432166823 -0.54622821354151718 0.10725037878762363
    outer loop
      vertex 1.951167106628418 -0.92840749025344849 -2.2788338661193848
      vertex 1.951167106628418 -0.86924111843109131 -1.9774984121322632
      vertex 1.5049726963043213 -1.497463583946228 -1.7209067344665527
    endloop
  endfacet
  facet normal 0.83074191397252717 -0.54622817231280885 0.10725043655421952
    outer loop
      vertex 1.951167106628418 -0.92840749025344849 -2.2788338661193848
      vertex 1.5049726963043213 -1.497463583946228 -1.7209067344665527
      vertex 1.5049726963043213 -1.607011079788208 -2.2788338661193848
    endloop
  endfacet
  facet normal 0.98056251607650691 -0.1925307628829806 0.037802875676432542
    outer loop
      vertex 2.1076433658599854 -0.131471186876297 -2.2788338661193848
      vertex 1.951167106628418 -0.86924111843109131 -1.9774984121322632
      vertex 1.951167106628418 -0.92840749025344849 -2.2788338661193848
    endloop
  endfacet
  facet normal -0.97870240625654192 -0.20108381824254251 -0.041314622455674348
    outer loop
      vertex -1.9369080066680908 -0.89514666795730591 -2.6064739227294922
      vertex -1.9369080066680908 -0.96246349811553955 -2.2788338661193848
      vertex -2.1076433658599854 -0.131471186876297 -2.2788338661193848
    endloop
  endfacet
  facet normal -0.81967778099674304 -0.5611041394976316 -0.11528434403195192
    outer loop
      vertex -1.4755399227142334 -1.5145293474197388 -2.8722078800201416
      vertex -1.4755399227142334 -1.6364438533782959 -2.2788338661193848
      vertex -1.9369080066680908 -0.96246349811553955 -2.2788338661193848
    endloop
  endfacet
  facet normal -0.81967776405791815 -0.56110417343590513 -0.11528429928581471
    outer loop
      vertex -1.4755399227142334 -1.5145293474197388 -2.8722078800201416
      vertex -1.9369080066680908 -0.96246349811553955 -2.2788338661193848
      vertex -1.9369080066680908 -0.89514666795730591 -2.6064739227294922
    endloop
  endfacet
  facet normal -0.5414758242840203 -0.82351421152616111 -0.16919892177666512
    outer loop
      vertex -0.79693633317947388 -1.9245786666870117 -3.0481314659118652
      vertex -0.79693633317947388 -2.0826382637023926 -2.2788338661193848
      vertex -1.4755399227142334 -1.6364438533782959 -2.2788338661193848
    endloop
  endfacet
  facet normal -0.54147592580371173 -0.82351411927699436 -0.16919904587925366
    outer loop
      vertex -0.79693633317947388 -1.9245786666870117 -3.0481314659118652
      vertex -1.4755399227142334 -1.6364438533782959 -2.2788338661193848
      vertex -1.4755399227142334 -1.5145293474197388 -2.8722078800201416
    endloop
  endfacet
  facet normal -0.18886827341786913 -0.96190942965237991 -0.19763356102136598
    outer loop
      vertex 0 -2.0683791637420654 -3.1098260879516602
      vertex 0 -2.23911452293396 -2.2788338661193848
      vertex -0.79693633317947388 -2.0826382637023926 -2.2788338661193848
    endloop
  endfacet
  facet normal -0.18886826421017108 -0.96190943326184064 -0.19763355225295484
    outer loop
      vertex 0 -2.0683791637420654 -3.1098260879516602
      vertex -0.79693633317947388 -2.0826382637023926 -2.2788338661193848
      vertex -0.79693633317947388 -1.9245786666870117 -3.0481314659118652
    endloop
  endfacet
  facet normal 0.1972996057607671 -0.96028416172097308 -0.19729975751250647
    outer loop
      vertex 0.83099234104156494 -1.9114745855331421 -3.0425093173980713
      vertex 0.83099234104156494 -2.0683791637420654 -2.2788338661193848
      vertex 0 -2.23911452293396 -2.2788338661193848
    endloop
  endfacet
  facet normal 0.19729971959806233 -0.96028416361566726 -0.1972996344534991
    outer loop
      vertex 0.83099234104156494 -1.9114745855331421 -3.0425093173980713
      vertex 0 -2.23911452293396 -2.2788338661193848
      vertex 0 -2.0683791637420654 -3.1098260879516602
    endloop
  endfacet
  facet normal 0.55692295333221264 -0.81356977865501501 -0.1671557337064935
    outer loop
      vertex 1.5049726963043213 -1.4874809980392456 -2.8606030941009521
      vertex 1.5049726963043213 -1.607011079788208 -2.2788338661193848
      vertex 0.83099234104156494 -2.0683791637420654 -2.2788338661193848
    endloop
  endfacet
  facet normal 0.55692286984957007 -0.81356980958589709 -0.16715586130580642
    outer loop
      vertex 1.5049726963043213 -1.4874809980392456 -2.8606030941009521
      vertex 0.83099234104156494 -2.0683791637420654 -2.2788338661193848
      vertex 0.83099234104156494 -1.9114745855331421 -3.0425093173980713
    endloop
  endfacet
  facet normal 0.8302885254377721 -0.54593006096616614 -0.1121665416238216
    outer loop
      vertex 1.951167106628418 -0.86384952068328857 -2.5930464267730713
      vertex 1.951167106628418 -0.92840749025344849 -2.2788338661193848
      vertex 1.5049726963043213 -1.607011079788208 -2.2788338661193848
    endloop
  endfacet
  facet normal 0.83028851338111009 -0.54593007093891888 -0.11216658233187497
    outer loop
      vertex 1.951167106628418 -0.86384952068328857 -2.5930464267730713
      vertex 1.5049726963043213 -1.607011079788208 -2.2788338661193848
      vertex 1.5049726963043213 -1.4874809980392456 -2.8606030941009521
    endloop
  endfacet
  facet normal 0.9804959812806735 -0.19251769895815171 -0.039554598725147258
    outer loop
      vertex 2.1076433658599854 -0.131471186876297 -2.2788338661193848
      vertex 1.951167106628418 -0.92840749025344849 -2.2788338661193848
      vertex 1.951167106628418 -0.86384952068328857 -2.5930464267730713
    endloop
  endfacet
  facet normal -0.97876582827946168 -0.16914663064239924 -0.11578804227874065
    outer loop
      vertex -1.9369080066680908 -0.71324050426483154 -2.8722078800201416
      vertex -1.9369080066680908 -0.89514666795730591 -2.6064739227294922
      vertex -2.1076433658599854 -0.131471186876297 -2.2788338661193848
    endloop
  endfacet
  facet normal -0.82009160330698683 -0.47219435761463568 -0.32323714332093234
    outer loop
      vertex -1.4755399227142334 -1.1850873231887817 -3.3534665107727051
      vertex -1.4755399227142334 -1.5145293474197388 -2.8722078800201416
      vertex -1.9369080066680908 -0.89514666795730591 -2.6064739227294922
    endloop
  endfacet
  facet normal -0.82009158223158485 -0.47219441959711855 -0.32323710624591984
    outer loop
      vertex -1.4755399227142334 -1.1850873231887817 -3.3534665107727051
      vertex -1.9369080066680908 -0.89514666795730591 -2.6064739227294922
      vertex -1.9369080066680908 -0.71324050426483154 -2.8722078800201416
    endloop
  endfacet
  facet normal -0.54206530872956948 -0.69342839687902136 -0.47468121879184033
    outer loop
      vertex -0.79693633317947388 -1.497463583946228 -3.6720738410949707
      vertex -0.79693633317947388 -1.9245786666870117 -3.0481314659118652
      vertex -1.4755399227142334 -1.5145293474197388 -2.8722078800201416
    endloop
  endfacet
  facet normal -0.54206533421308878 -0.69342836265800656 -0.47468123968184028
    outer loop
      vertex -0.79693633317947388 -1.497463583946228 -3.6720738410949707
      vertex -1.4755399227142334 -1.5145293474197388 -2.8722078800201416
      vertex -1.4755399227142334 -1.1850873231887817 -3.3534665107727051
    endloop
  endfacet
  facet normal -0.18914886150706334 -0.81028389255476896 -0.55467352709217466
    outer loop
      vertex 0 -1.607011079788208 -3.7838065624237061
      vertex 0 -2.0683791637420654 -3.1098260879516602
      vertex -0.79693633317947388 -1.9245786666870117 -3.0481314659118652
    endloop
  endfacet
  facet normal -0.18914905513742647 -0.81028374682984139 -0.55467367394172606
    outer loop
      vertex 0 -1.607011079788208 -3.7838065624237061
      vertex -0.79693633317947388 -1.9245786666870117 -3.0481314659118652
      vertex -0.79693633317947388 -1.497463583946228 -3.6720738410949707
    endloop
  endfacet
  facet normal 0.19759190315735009 -0.80891082125299996 -0.55373344044445572
    outer loop
      vertex 0.83099234104156494 -1.4874809980392456 -3.6618921756744385
      vertex 0.83099234104156494 -1.9114745855331421 -3.0425093173980713
      vertex 0 -2.0683791637420654 -3.1098260879516602
    endloop
  endfacet
  facet normal 0.19759178247146497 -0.80891076610251134 -0.55373356407499563
    outer loop
      vertex 0.83099234104156494 -1.4874809980392456 -3.6618921756744385
      vertex 0 -2.0683791637420654 -3.1098260879516602
      vertex 0 -1.607011079788208 -3.7838065624237061
    endloop
  endfacet
  facet normal 0.55751452882118913 -0.68503697659727836 -0.46893697961213032
    outer loop
      vertex 1.5049726963043213 -1.1644817590713501 -3.3324499130249023
      vertex 1.5049726963043213 -1.4874809980392456 -2.8606030941009521
      vertex 0.83099234104156494 -1.9114745855331421 -3.0425093173980713
    endloop
  endfacet
  facet normal 0.55751474636473208 -0.6850370377918773 -0.46893663158170795
    outer loop
      vertex 1.5049726963043213 -1.1644817590713501 -3.3324499130249023
      vertex 0.83099234104156494 -1.9114745855331421 -3.0425093173980713
      vertex 0.83099234104156494 -1.4874809980392456 -3.6618921756744385
    endloop
  endfacet
  facet normal 0.8306853073895345 -0.45941228699462011 -0.31448731396596474
    outer loop
      vertex 1.951167106628418 -0.68939828872680664 -2.8478899002075195
      vertex 1.951167106628418 -0.86384952068328857 -2.5930464267730713
      vertex 1.5049726963043213 -1.4874809980392456 -2.8606030941009521
    endloop
  endfacet
  facet normal 0.83068531788233479 -0.45941229345275064 -0.31448727681610289
    outer loop
      vertex 1.951167106628418 -0.68939828872680664 -2.8478899002075195
      vertex 1.5049726963043213 -1.4874809980392456 -2.8606030941009521
      vertex 1.5049726963043213 -1.1644817590713501 -3.3324499130249023
    endloop
  endfacet
  facet normal 0.98055421966866996 -0.16194013268598867 -0.11085493094855971
    outer loop
      vertex 2.1076433658599854 -0.131471186876297 -2.2788338661193848
      vertex 1.951167106628418 -0.86384952068328857 -2.5930464267730713
      vertex 1.951167106628418 -0.68939828872680664 -2.8478899002075195
    endloop
  endfacet
  facet normal -0.97877486456371821 -0.11259260230410641 -0.17123863584093502
    outer loop
      vertex -1.9369080066680908 -0.44568371772766113 -3.0481314659118652
      vertex -1.9369080066680908 -0.71324050426483154 -2.8722078800201416
      vertex -2.1076433658599854 -0.131471186876297 -2.2788338661193848
    endloop
  endfacet
  facet normal -0.82015057232754141 -0.31433640593000856 -0.47806449629502007
    outer loop
      vertex -1.4755399227142334 -0.70052731037139893 -3.6720738410949707
      vertex -1.4755399227142334 -1.1850873231887817 -3.3534665107727051
      vertex -1.9369080066680908 -0.71324050426483154 -2.8722078800201416
    endloop
  endfacet
  facet normal -0.82015059046423511 -0.31433634419071271 -0.47806450577509341
    outer loop
      vertex -1.4755399227142334 -0.70052731037139893 -3.6720738410949707
      vertex -1.9369080066680908 -0.71324050426483154 -2.8722078800201416
      vertex -1.9369080066680908 -0.44568371772766113 -3.0481314659118652
    endloop
  endfacet
  facet normal -0.54214944188076064 -0.46164846303084539 -0.70210731320050901
    outer loop
      vertex -0.79693633317947388 -0.86924111843109131 -4.085141658782959
      vertex -0.79693633317947388 -1.497463583946228 -3.6720738410949707
      vertex -1.4755399227142334 -1.1850873231887817 -3.3534665107727051
    endloop
  endfacet
  facet normal -0.54214926088613835 -0.46164874546511997 -0.70210726725415318
    outer loop
      vertex -0.79693633317947388 -0.86924111843109131 -4.085141658782959
      vertex -1.4755399227142334 -1.1850873231887817 -3.3534665107727051
      vertex -1.4755399227142334 -0.70052731037139893 -3.6720738410949707
    endloop
  endfacet
  facet normal -0.18918915156750224 -0.53947532706950008 -0.82047171579063261
    outer loop
      vertex 0 -0.92840749025344849 -4.2300009727478027
      vertex 0 -1.607011079788208 -3.7838065624237061
      vertex -0.79693633317947388 -1.497463583946228 -3.6720738410949707
    endloop
  endfacet
  facet normal -0.18918922573781319 -0.5394752537168126 -0.82047174691875113
    outer loop
      vertex 0 -0.92840749025344849 -4.2300009727478027
      vertex -0.79693633317947388 -1.497463583946228 -3.6720738410949707
      vertex -0.79693633317947388 -0.86924111843109131 -4.085141658782959
    endloop
  endfacet
  facet normal 0.19763351775377044 -0.53856072672869515 -0.81908078739873391
    outer loop
      vertex 0.83099234104156494 -0.86384952068328857 -4.0719413757324219
      vertex 0.83099234104156494 -1.4874809980392456 -3.6618921756744385
      vertex 0 -1.607011079788208 -3.7838065624237061
    endloop
  endfacet
  facet normal 0.19763354726823487 -0.53856075082689414 -0.81908076443226674
    outer loop
      vertex 0.83099234104156494 -0.86384952068328857 -4.0719413757324219
      vertex 0 -1.607011079788208 -3.7838065624237061
      vertex 0 -0.92840749025344849 -4.2300009727478027
    endloop
  endfacet
  facet normal 0.55759925422231904 -0.45606049487957995 -0.69360788396680295
    outer loop
      vertex 1.5049726963043213 -0.68939828872680664 -3.6448264122009277
      vertex 1.5049726963043213 -1.1644817590713501 -3.3324499130249023
      vertex 0.83099234104156494 -1.4874809980392456 -3.6618921756744385
    endloop
  endfacet
  facet normal 0.55759896402605558 -0.45606024125445255 -0.69360828402204089
    outer loop
      vertex 1.5049726963043213 -0.68939828872680664 -3.6448264122009277
      vertex 0.83099234104156494 -1.4874809980392456 -3.6618921756744385
      vertex 0.83099234104156494 -0.86384952068328857 -4.0719413757324219
    endloop
  endfacet
  facet normal 0.83074187811102818 -0.3058261734205508 -0.46512179437595191
    outer loop
      vertex 1.951167106628418 -0.43280655145645142 -3.0166037082672119
      vertex 1.951167106628418 -0.68939828872680664 -2.8478899002075195
      vertex 1.5049726963043213 -1.1644817590713501 -3.3324499130249023
    endloop
  endfacet
  facet normal 0.83074196261971012 -0.3058263363607916 -0.46512153630087683
    outer loop
      vertex 1.951167106628418 -0.43280655145645142 -3.0166037082672119
      vertex 1.5049726963043213 -1.1644817590713501 -3.3324499130249023
      vertex 1.5049726963043213 -0.68939828872680664 -3.6448264122009277
    endloop
  endfacet
  facet normal 0.98056251278675099 -0.10779550999637381 -0.16394293684680128
    outer loop
      vertex 2.1076433658599854 -0.131471186876297 -2.2788338661193848
      vertex 1.951167106628418 -0.68939828872680664 -2.8478899002075195
      vertex 1.951167106628418 -0.43280655145645142 -3.0166037082672119
    endloop
  endfacet
  facet normal -0.97877486169348238 -0.039485089576978057 -0.20109872654495534
    outer loop
      vertex -1.9369080066680908 -0.131471186876297 -3.1098260879516602
      vertex -1.9369080066680908 -0.44568371772766113 -3.0481314659118652
      vertex -2.1076433658599854 -0.131471186876297 -2.2788338661193848
    endloop
  endfacet
  facet normal -0.820150595748802 -0.11023493428186264 -0.56142787564989916
    outer loop
      vertex -1.4755399227142334 -0.131471186876297 -3.7838065624237061
      vertex -1.4755399227142334 -0.70052731037139893 -3.6720738410949707
      vertex -1.9369080066680908 -0.44568371772766113 -3.0481314659118652
    endloop
  endfacet
  facet normal -0.82015071252592053 -0.11023454319241231 -0.56142778184766107
    outer loop
      vertex -1.4755399227142334 -0.131471186876297 -3.7838065624237061
      vertex -1.9369080066680908 -0.44568371772766113 -3.0481314659118652
      vertex -1.9369080066680908 -0.131471186876297 -3.1098260879516602
    endloop
  endfacet
  facet normal -0.54214927861453366 -0.16189611745947682 -0.82453854176095875
    outer loop
      vertex -0.79693633317947388 -0.131471186876297 -4.2300009727478027
      vertex -0.79693633317947388 -0.86924111843109131 -4.085141658782959
      vertex -1.4755399227142334 -0.70052731037139893 -3.6720738410949707
    endloop
  endfacet
  facet normal -0.54214932867221621 -0.16189604034104729 -0.82453852398911909
    outer loop
      vertex -0.79693633317947388 -0.131471186876297 -4.2300009727478027
      vertex -1.4755399227142334 -0.70052731037139893 -3.6720738410949707
      vertex -1.4755399227142334 -0.131471186876297 -3.7838065624237061
    endloop
  endfacet
  facet normal -0.18918926707125436 -0.18918928746722199 -0.96354285568037201
    outer loop
      vertex 0 -0.131471186876297 -4.3864774703979492
      vertex 0 -0.92840749025344849 -4.2300009727478027
      vertex -0.79693633317947388 -0.86924111843109131 -4.085141658782959
    endloop
  endfacet
  facet normal -0.18918928043051486 -0.18918927311613926 -0.96354285587511401
    outer loop
      vertex 0 -0.131471186876297 -4.3864774703979492
      vertex -0.79693633317947388 -0.86924111843109131 -4.085141658782959
      vertex -0.79693633317947388 -0.131471186876297 -4.2300009727478027
    endloop
  endfacet
  facet normal 0.19763354300017869 -0.18886800246083707 -0.96190948655663522
    outer loop
      vertex 0.83099234104156494 -0.131471186876297 -4.2157416343688965
      vertex 0.83099234104156494 -0.86384952068328857 -4.0719413757324219
      vertex 0 -0.92840749025344849 -4.2300009727478027
    endloop
  endfacet
  facet normal 0.1976340531725565 -0.18886853819240262 -0.961909276547249
    outer loop
      vertex 0.83099234104156494 -0.131471186876297 -4.2157416343688965
      vertex 0 -0.92840749025344849 -4.2300009727478027
      vertex 0 -0.131471186876297 -4.3864774703979492
    endloop
  endfacet
  facet normal 0.5575989323781273 -0.15993601263108539 -0.81455748874738221
    outer loop
      vertex 1.5049726963043213 -0.131471186876297 -3.7543737888336182
      vertex 1.5049726963043213 -0.68939828872680664 -3.6448264122009277
      vertex 0.83099234104156494 -0.86384952068328857 -4.0719413757324219
    endloop
  endfacet
  facet normal 0.5575988487172745 -0.15993590133272875 -0.81455756786985789
    outer loop
      vertex 1.5049726963043213 -0.131471186876297 -3.7543737888336182
      vertex 0.83099234104156494 -0.86384952068328857 -4.0719413757324219
      vertex 0.83099234104156494 -0.131471186876297 -4.2157416343688965
    endloop
  endfacet
  facet normal 0.83074200166409518 -0.10725048259736136 -0.54622802990487906
    outer loop
      vertex 1.951167106628418 -0.131471186876297 -3.0757701396942139
      vertex 1.951167106628418 -0.43280655145645142 -3.0166037082672119
      vertex 1.5049726963043213 -0.68939828872680664 -3.6448264122009277
    endloop
  endfacet
  facet normal 0.83074194647093358 -0.10725032034883582 -0.54622814570356659
    outer loop
      vertex 1.951167106628418 -0.131471186876297 -3.0757701396942139
      vertex 1.5049726963043213 -0.68939828872680664 -3.6448264122009277
      vertex 1.5049726963043213 -0.131471186876297 -3.7543737888336182
    endloop
  endfacet
  facet normal 0.98056251283742069 -0.037802926264360631 -0.19253076944689787
    outer loop
      vertex 2.1076433658599854 -0.131471186876297 -2.2788338661193848
      vertex 1.951167106628418 -0.43280655145645142 -3.0166037082672119
      vertex 1.951167106628418 -0.131471186876297 -3.0757701396942139
    endloop
  endfacet
  facet normal -0.97870240284236232 0.041314601449216212 -0.20108383917579881
    outer loop
      vertex -1.9369080066680908 0.19616878032684326 -3.0425093173980713
      vertex -1.9369080066680908 -0.131471186876297 -3.1098260879516602
      vertex -2.1076433658599854 -0.131471186876297 -2.2788338661193848
    endloop
  endfacet
  facet normal -0.81967783812643269 0.11528423053037219 -0.56110407936085915
    outer loop
      vertex -1.4755399227142334 0.46190276741981506 -3.6618921756744385
      vertex -1.4755399227142334 -0.131471186876297 -3.7838065624237061
      vertex -1.9369080066680908 -0.131471186876297 -3.1098260879516602
    endloop
  endfacet
  facet normal -0.8196778311860704 0.1152842121964826 -0.56110409326642419
    outer loop
      vertex -1.4755399227142334 0.46190276741981506 -3.6618921756744385
      vertex -1.9369080066680908 -0.131471186876297 -3.1098260879516602
      vertex -1.9369080066680908 0.19616878032684326 -3.0425093173980713
    endloop
  endfacet
  facet normal -0.54147582368349678 0.16919892814372298 -0.82351421061284302
    outer loop
      vertex -0.79693633317947388 0.63782638311386108 -4.0719413757324219
      vertex -0.79693633317947388 -0.131471186876297 -4.2300009727478027
      vertex -1.4755399227142334 -0.131471186876297 -3.7838065624237061
    endloop
  endfacet
  facet normal -0.54147581520519905 0.16919891777944154 -0.82351421831692173
    outer loop
      vertex -0.79693633317947388 0.63782638311386108 -4.0719413757324219
      vertex -1.4755399227142334 -0.131471186876297 -3.7838065624237061
      vertex -1.4755399227142334 0.46190276741981506 -3.6618921756744385
    endloop
  endfacet
  facet normal -0.18886853111683055 0.19763406024720398 -0.96190927648296187
    outer loop
      vertex 0 0.69952112436294556 -4.2157416343688965
      vertex 0 -0.131471186876297 -4.3864774703979492
      vertex -0.79693633317947388 -0.131471186876297 -4.2300009727478027
    endloop
  endfacet
  facet normal -0.18886801549612489 0.19763356922618239 -0.96190947860881115
    outer loop
      vertex 0 0.69952112436294556 -4.2157416343688965
      vertex -0.79693633317947388 -0.131471186876297 -4.2300009727478027
      vertex -0.79693633317947388 0.63782638311386108 -4.0719413757324219
    endloop
  endfacet
  facet normal 0.19730015314299551 0.19729929646884839 -0.96028414398169015
    outer loop
      vertex 0.83099234104156494 0.63220429420471191 -4.0588374137878418
      vertex 0.83099234104156494 -0.131471186876297 -4.2157416343688965
      vertex 0 -0.131471186876297 -4.3864774703979492
    endloop
  endfacet
  facet normal 0.19729935663971096 0.19730015749512109 -0.9602841307248372
    outer loop
      vertex 0.83099234104156494 0.63220429420471191 -4.0588374137878418
      vertex 0 -0.131471186876297 -4.3864774703979492
      vertex 0 0.69952112436294556 -4.2157416343688965
    endloop
  endfacet
  facet normal 0.55692274246788787 0.16715588925301314 -0.81356989104199351
    outer loop
      vertex 1.5049726963043213 0.45029816031455994 -3.6348435878753662
      vertex 1.5049726963043213 -0.131471186876297 -3.7543737888336182
      vertex 0.83099234104156494 -0.131471186876297 -4.2157416343688965
    endloop
  endfacet
  facet normal 0.55692301701163216 0.1671554696257978 -0.81356978932162927
    outer loop
      vertex 1.5049726963043213 0.45029816031455994 -3.6348435878753662
      vertex 0.83099234104156494 -0.131471186876297 -4.2157416343688965
      vertex 0.83099234104156494 0.63220429420471191 -4.0588374137878418
    endloop
  endfacet
  facet normal 0.83028853745523223 0.11216664759433696 -0.54593002091650855
    outer loop
      vertex 1.951167106628418 0.18274134397506714 -3.0112121105194092
      vertex 1.951167106628418 -0.131471186876297 -3.0757701396942139
      vertex 1.5049726963043213 -0.131471186876297 -3.7543737888336182
    endloop
  endfacet
  facet normal 0.83028853329435748 0.11216666164309216 -0.54593002435820359
    outer loop
      vertex 1.951167106628418 0.18274134397506714 -3.0112121105194092
      vertex 1.5049726963043213 -0.131471186876297 -3.7543737888336182
      vertex 1.5049726963043213 0.45029816031455994 -3.6348435878753662
    endloop
  endfacet
  facet normal 0.98049597830247393 0.039554640355558675 -0.19251770557280481
    outer loop
      vertex 2.1076433658599854 -0.131471186876297 -2.2788338661193848
      vertex 1.951167106628418 -0.131471186876297 -3.0757701396942139
      vertex 1.951167106628418 0.18274134397506714 -3.0112121105194092
    endloop
  endfacet
  facet normal -0.97876582367528042 0.11578807168895863 -0.16914663715191933
    outer loop
      vertex -1.9369080066680908 0.46190276741981506 -2.8606030941009521
      vertex -1.9369080066680908 0.19616878032684326 -3.0425093173980713
      vertex -2.1076433658599854 -0.131471186876297 -2.2788338661193848
    endloop
  endfacet
  facet normal -0.82009166289561775 0.32323715895938132 -0.4721942434178632
    outer loop
      vertex -1.4755399227142334 0.94316160678863525 -3.3324499130249023
      vertex -1.4755399227142334 0.46190276741981506 -3.6618921756744385
      vertex -1.9369080066680908 0.19616878032684326 -3.0425093173980713
    endloop
  endfacet
  facet normal -0.82009163541890517 0.32323711062345517 -0.47219432422652613
    outer loop
      vertex -1.4755399227142334 0.94316160678863525 -3.3324499130249023
      vertex -1.9369080066680908 0.19616878032684326 -3.0425093173980713
      vertex -1.9369080066680908 0.46190276741981506 -2.8606030941009521
    endloop
  endfacet
  facet normal -0.54206525063231192 0.47468111887201553 -0.69342851069402989
    outer loop
      vertex -0.79693633317947388 1.2617688179016113 -3.6448264122009277
      vertex -0.79693633317947388 0.63782638311386108 -4.0719413757324219
      vertex -1.4755399227142334 0.46190276741981506 -3.6618921756744385
    endloop
  endfacet
  facet normal -0.54206545759680069 0.47468128853020281 -0.6934282327679463
    outer loop
      vertex -0.79693633317947388 1.2617688179016113 -3.6448264122009277
      vertex -1.4755399227142334 0.46190276741981506 -3.6618921756744385
      vertex -1.4755399227142334 0.94316160678863525 -3.3324499130249023
    endloop
  endfacet
  facet normal -0.18914871199220373 0.55467344838917354 -0.81028398133231849
    outer loop
      vertex 0 1.3735014200210571 -3.7543737888336182
      vertex 0 0.69952112436294556 -4.2157416343688965
      vertex -0.79693633317947388 0.63782638311386108 -4.0719413757324219
    endloop
  endfacet
  facet normal -0.18914885197567416 0.55467355455286871 -0.81028387598172669
    outer loop
      vertex 0 1.3735014200210571 -3.7543737888336182
      vertex -0.79693633317947388 0.63782638311386108 -4.0719413757324219
      vertex -0.79693633317947388 1.2617688179016113 -3.6448264122009277
    endloop
  endfacet
  facet normal 0.19759159359738412 0.55373376027997467 -0.80891067792794391
    outer loop
      vertex 0.83099234104156494 1.2515870332717896 -3.6348435878753662
      vertex 0.83099234104156494 0.63220429420471191 -4.0588374137878418
      vertex 0 0.69952112436294556 -4.2157416343688965
    endloop
  endfacet
  facet normal 0.19759188958698423 0.55373345706840393 -0.80891081318802938
    outer loop
      vertex 0.83099234104156494 1.2515870332717896 -3.6348435878753662
      vertex 0 0.69952112436294556 -4.2157416343688965
      vertex 0 1.3735014200210571 -3.7543737888336182
    endloop
  endfacet
  facet normal 0.55751465519201038 0.46893691150552341 -0.68503692037275954
    outer loop
      vertex 1.5049726963043213 0.92214500904083252 -3.3118443489074707
      vertex 1.5049726963043213 0.45029816031455994 -3.6348435878753662
      vertex 0.83099234104156494 0.63220429420471191 -4.0588374137878418
    endloop
  endfacet
  facet normal 0.55751465873903894 0.46893690583091996 -0.68503692137053185
    outer loop
      vertex 1.5049726963043213 0.92214500904083252 -3.3118443489074707
      vertex 0.83099234104156494 0.63220429420471191 -4.0588374137878418
      vertex 0.83099234104156494 1.2515870332717896 -3.6348435878753662
    endloop
  endfacet
  facet normal 0.83068536722985942 0.31448701703110904 -0.45941238205893892
    outer loop
      vertex 1.951167106628418 0.43758493661880493 -2.8367609977722168
      vertex 1.951167106628418 0.18274134397506714 -3.0112121105194092
      vertex 1.5049726963043213 0.45029816031455994 -3.6348435878753662
    endloop
  endfacet
  facet normal 0.83068529136190783 0.31448728564249828 -0.45941233536355541
    outer loop
      vertex 1.951167106628418 0.43758493661880493 -2.8367609977722168
      vertex 1.5049726963043213 0.45029816031455994 -3.6348435878753662
      vertex 1.5049726963043213 0.92214500904083252 -3.3118443489074707
    endloop
  endfacet
  facet normal 0.98055421929394759 0.11085484511612587 -0.16194019371087842
    outer loop
      vertex 2.1076433658599854 -0.131471186876297 -2.2788338661193848
      vertex 1.951167106628418 0.18274134397506714 -3.0112121105194092
      vertex 1.951167106628418 0.43758493661880493 -2.8367609977722168
    endloop
  endfacet
  facet normal -0.97877486185520901 0.17123861486492065 -0.11259265775111513
    outer loop
      vertex -1.9369080066680908 0.63782638311386108 -2.5930464267730713
      vertex -1.9369080066680908 0.46190276741981506 -2.8606030941009521
      vertex -2.1076433658599854 -0.131471186876297 -2.2788338661193848
    endloop
  endfacet
  facet normal -0.82015063403579747 0.47806447637442018 -0.31433627522055246
    outer loop
      vertex -1.4755399227142334 1.2617688179016113 -2.8478899002075195
      vertex -1.4755399227142334 0.94316160678863525 -3.3324499130249023
      vertex -1.9369080066680908 0.46190276741981506 -2.8606030941009521
    endloop
  endfacet
  facet normal -0.82015056921351115 0.47806444249173052 -0.31433649588271573
    outer loop
      vertex -1.4755399227142334 1.2617688179016113 -2.8478899002075195
      vertex -1.9369080066680908 0.46190276741981506 -2.8606030941009521
      vertex -1.9369080066680908 0.63782638311386108 -2.5930464267730713
    endloop
  endfacet
  facet normal -0.54214947613650255 0.70210725284103315 -0.46164851460059259
    outer loop
      vertex -0.79693633317947388 1.6748368740081787 -3.0166037082672119
      vertex -0.79693633317947388 1.2617688179016113 -3.6448264122009277
      vertex -1.4755399227142334 0.94316160678863525 -3.3324499130249023
    endloop
  endfacet
  facet normal -0.54214944796748921 0.70210724569019756 -0.46164855855712528
    outer loop
      vertex -0.79693633317947388 1.6748368740081787 -3.0166037082672119
      vertex -1.4755399227142334 0.94316160678863525 -3.3324499130249023
      vertex -1.4755399227142334 1.2617688179016113 -2.8478899002075195
    endloop
  endfacet
  facet normal -0.18918895837033967 0.8204717024807191 -0.53947541506461272
    outer loop
      vertex 0 1.8196959495544434 -3.0757701396942139
      vertex 0 1.3735014200210571 -3.7543737888336182
      vertex -0.79693633317947388 1.2617688179016113 -3.6448264122009277
    endloop
  endfacet
  facet normal -0.18918902471796295 0.82047173032578435 -0.53947534944840547
    outer loop
      vertex 0 1.8196959495544434 -3.0757701396942139
      vertex -0.79693633317947388 1.2617688179016113 -3.6448264122009277
      vertex -0.79693633317947388 1.6748368740081787 -3.0166037082672119
    endloop
  endfacet
  facet normal 0.19763359697136101 0.81908070217964524 -0.53856082726564958
    outer loop
      vertex 0.83099234104156494 1.6616363525390625 -3.0112121105194092
      vertex 0.83099234104156494 1.2515870332717896 -3.6348435878753662
      vertex 0 1.3735014200210571 -3.7543737888336182
    endloop
  endfacet
  facet normal 0.19763358131898823 0.81908071435942653 -0.53856081448568294
    outer loop
      vertex 0.83099234104156494 1.6616363525390625 -3.0112121105194092
      vertex 0 1.3735014200210571 -3.7543737888336182
      vertex 0 1.8196959495544434 -3.0757701396942139
    endloop
  endfacet
  facet normal 0.55759906740480503 0.69360809607752361 -0.4560604006982017
    outer loop
      vertex 1.5049726963043213 1.2345212697982788 -2.8367609977722168
      vertex 1.5049726963043213 0.92214500904083252 -3.3118443489074707
      vertex 0.83099234104156494 1.2515870332717896 -3.6348435878753662
    endloop
  endfacet
  facet normal 0.55759898291021714 0.69360821255903027 -0.45606032685178666
    outer loop
      vertex 1.5049726963043213 1.2345212697982788 -2.8367609977722168
      vertex 0.83099234104156494 1.2515870332717896 -3.6348435878753662
      vertex 0.83099234104156494 1.6616363525390625 -3.0112121105194092
    endloop
  endfacet
  facet normal 0.83074186665584715 0.46512184127216855 -0.30582613321419477
    outer loop
      vertex 1.951167106628418 0.60629874467849731 -2.5801692008972168
      vertex 1.951167106628418 0.43758493661880493 -2.8367609977722168
      vertex 1.5049726963043213 0.92214500904083252 -3.3118443489074707
    endloop
  endfacet
  facet normal 0.83074192940688829 0.46512164964126107 -0.30582625420377646
    outer loop
      vertex 1.951167106628418 0.60629874467849731 -2.5801692008972168
      vertex 1.5049726963043213 0.92214500904083252 -3.3118443489074707
      vertex 1.5049726963043213 1.2345212697982788 -2.8367609977722168
    endloop
  endfacet
  facet normal 0.98056251639290415 0.16394293328307238 -0.10779548261294442
    outer loop
      vertex 2.1076433658599854 -0.131471186876297 -2.2788338661193848
      vertex 1.951167106628418 0.43758493661880493 -2.8367609977722168
      vertex 1.951167106628418 0.60629874467849731 -2.5801692008972168
    endloop
  endfacet
  facet normal -0.97877486331251218 0.20109870524126652 -0.039485157943956573
    outer loop
      vertex -1.9369080066680908 0.69952112436294556 -2.2788338661193848
      vertex -1.9369080066680908 0.63782638311386108 -2.5930464267730713
      vertex -2.1076433658599854 -0.131471186876297 -2.2788338661193848
    endloop
  endfacet
  facet normal -0.82015060110100213 0.56142788708252045 -0.11023483623483883
    outer loop
      vertex -1.4755399227142334 1.3735014200210571 -2.2788338661193848
      vertex -1.4755399227142334 1.2617688179016113 -2.8478899002075195
      vertex -1.9369080066680908 0.63782638311386108 -2.5930464267730713
    endloop
  endfacet
  facet normal -0.82015062298387054 0.56142786950492174 -0.11023476294859738
    outer loop
      vertex -1.4755399227142334 1.3735014200210571 -2.2788338661193848
      vertex -1.9369080066680908 0.63782638311386108 -2.5930464267730713
      vertex -1.9369080066680908 0.69952112436294556 -2.2788338661193848
    endloop
  endfacet
  facet normal -0.54214946149226984 0.82453847264625524 -0.16189585704959319
    outer loop
      vertex -0.79693633317947388 1.8196959495544434 -2.2788338661193848
      vertex -0.79693633317947388 1.6748368740081787 -3.0166037082672119
      vertex -1.4755399227142334 1.2617688179016113 -2.8478899002075195
    endloop
  endfacet
  facet normal -0.54214944387201391 0.82453847890193388 -0.16189588419521825
    outer loop
      vertex -0.79693633317947388 1.8196959495544434 -2.2788338661193848
      vertex -1.4755399227142334 1.2617688179016113 -2.8478899002075195
      vertex -1.4755399227142334 1.3735014200210571 -2.2788338661193848
    endloop
  endfacet
  facet normal -0.18918899270583187 0.96354296071244849 -0.18918902690283451
    outer loop
      vertex 0 1.9761722087860107 -2.2788338661193848
      vertex 0 1.8196959495544434 -3.0757701396942139
      vertex -0.79693633317947388 1.6748368740081787 -3.0166037082672119
    endloop
  endfacet
  facet normal -0.18918901281050945 0.96354296100552084 -0.18918900530553673
    outer loop
      vertex 0 1.9761722087860107 -2.2788338661193848
      vertex -0.79693633317947388 1.6748368740081787 -3.0166037082672119
      vertex -0.79693633317947388 1.8196959495544434 -2.2788338661193848
    endloop
  endfacet
  facet normal 0.19763356272288302 0.96190944869490214 -0.18886817465345918
    outer loop
      vertex 0.83099234104156494 1.8054367303848267 -2.2788338661193848
      vertex 0.83099234104156494 1.6616363525390625 -3.0112121105194092
      vertex 0 1.8196959495544434 -3.0757701396942139
    endloop
  endfacet
  facet normal 0.19763366585025094 0.96190940624316923 -0.18886828294741481
    outer loop
      vertex 0.83099234104156494 1.8054367303848267 -2.2788338661193848
      vertex 0 1.8196959495544434 -3.0757701396942139
      vertex 0 1.9761722087860107 -2.2788338661193848
    endloop
  endfacet
  facet normal 0.55759902692300878 0.81455739514089909 -0.15993615975065431
    outer loop
      vertex 1.5049726963043213 1.3440687656402588 -2.2788338661193848
      vertex 1.5049726963043213 1.2345212697982788 -2.8367609977722168
      vertex 0.83099234104156494 1.6616363525390625 -3.0112121105194092
    endloop
  endfacet
  facet normal 0.55759893443085384 0.8145574826156502 -0.15993603670352427
    outer loop
      vertex 1.5049726963043213 1.3440687656402588 -2.2788338661193848
      vertex 0.83099234104156494 1.6616363525390625 -3.0112121105194092
      vertex 0.83099234104156494 1.8054367303848267 -2.2788338661193848
    endloop
  endfacet
  facet normal 0.8307419392177271 0.54622811934681181 -0.10725051076622331
    outer loop
      vertex 1.951167106628418 0.66546517610549927 -2.2788338661193848
      vertex 1.951167106628418 0.60629874467849731 -2.5801692008972168
      vertex 1.5049726963043213 1.2345212697982788 -2.8367609977722168
    endloop
  endfacet
  facet normal 0.83074191397252717 0.54622817231280885 -0.10725043655421952
    outer loop
      vertex 1.951167106628418 0.66546517610549927 -2.2788338661193848
      vertex 1.5049726963043213 1.2345212697982788 -2.8367609977722168
      vertex 1.5049726963043213 1.3440687656402588 -2.2788338661193848
    endloop
  endfacet
  facet normal 0.98056251693381535 0.19253074865150638 -0.037802925919979816
    outer loop
      vertex 2.1076433658599854 -0.131471186876297 -2.2788338661193848
      vertex 1.951167106628418 0.60629874467849731 -2.5801692008972168
      vertex 1.951167106628418 0.66546517610549927 -2.2788338661193848
    endloop
  endfacet
  facet normal 0.80881177298789719 -0.14773506437134151 0.56920810485390139
    outer loop
      vertex 3.6452813148498535 -1.4438818693161011 5.627922534942627
      vertex 3.9329624176025391 0.13109874725341797 5.627922534942627
      vertex -0.043699581176042557 0.043699581176042557 11.255845069885254
    endloop
  endfacet
  facet normal 0.68815461184681292 -0.44918865487453358 0.56980065156681714
    outer loop
      vertex 2.8027291297912598 -2.7346673011779785 5.627922534942627
      vertex 3.6452813148498535 -1.4438818693161011 5.627922534942627
      vertex -0.043699581176042557 0.043699581176042557 11.255845069885254
    endloop
  endfacet
  facet normal 0.46643041578719346 -0.67651571928156451 0.56988520668072562
    outer loop
      vertex 1.5408552885055542 -3.6046786308288574 5.627922534942627
      vertex 2.8027291297912598 -2.7346673011779785 5.627922534942627
      vertex -0.043699581176042557 0.043699581176042557 11.255845069885254
    endloop
  endfacet
  facet normal 0.17599947586558107 -0.80265499057622636 0.56988520826401423
    outer loop
      vertex 0.043699581176042557 -3.9329624176025391 5.627922534942627
      vertex 1.5408552885055542 -3.6046786308288574 5.627922534942627
      vertex -0.043699581176042557 0.043699581176042557 11.255845069885254
    endloop
  endfacet
  facet normal -0.14773505717552546 -0.80881177376724867 0.56920810561412538
    outer loop
      vertex -1.5312811136245728 -3.6452813148498535 5.627922534942627
      vertex 0.043699581176042557 -3.9329624176025391 5.627922534942627
      vertex -0.043699581176042557 0.043699581176042557 11.255845069885254
    endloop
  endfacet
  facet normal -0.44918871381540609 -0.68815457503613708 0.56980064955885645
    outer loop
      vertex -2.8220663070678711 -2.8027291297912598 5.627922534942627
      vertex -1.5312811136245728 -3.6452813148498535 5.627922534942627
      vertex -0.043699581176042557 0.043699581176042557 11.255845069885254
    endloop
  endfacet
  facet normal -0.67651566127498985 -0.46643050361493188 0.56988520365700357
    outer loop
      vertex -3.6920778751373291 -1.5408552885055542 5.627922534942627
      vertex -2.8220663070678711 -2.8027291297912598 5.627922534942627
      vertex -0.043699581176042557 0.043699581176042557 11.255845069885254
    endloop
  endfacet
  facet normal -0.80265501974826459 -0.17599935444122872 0.56988520467650661
    outer loop
      vertex -4.0203614234924316 -0.043699581176042557 5.627922534942627
      vertex -3.6920778751373291 -1.5408552885055542 5.627922534942627
      vertex -0.043699581176042557 0.043699581176042557 11.255845069885254
    endloop
  endfacet
  facet normal -0.8088117841193212 0.14773505906640302 0.56920809041366149
    outer loop
      vertex -3.7326803207397461 1.5312811136245728 5.627922534942627
      vertex -4.0203614234924316 -0.043699581176042557 5.627922534942627
      vertex -0.043699581176042557 0.043699581176042557 11.255845069885254
    endloop
  endfacet
  facet normal -0.68815463500210572 0.44918862585003977 0.56980064648267248
    outer loop
      vertex -2.8901283740997314 2.8220663070678711 5.627922534942627
      vertex -3.7326803207397461 1.5312811136245728 5.627922534942627
      vertex -0.043699581176042557 0.043699581176042557 11.255845069885254
    endloop
  endfacet
  facet normal -0.46643050180943807 0.67651565865628305 0.56988520824342448
    outer loop
      vertex -1.6282545328140259 3.6920778751373291 5.627922534942627
      vertex -2.8901283740997314 2.8220663070678711 5.627922534942627
      vertex -0.043699581176042557 0.043699581176042557 11.255845069885254
    endloop
  endfacet
  facet normal -0.17599934553221819 0.80265502105946585 0.56988520558114097
    outer loop
      vertex -0.13109874725341797 4.0203614234924316 5.627922534942627
      vertex -1.6282545328140259 3.6920778751373291 5.627922534942627
      vertex -0.043699581176042557 0.043699581176042557 11.255845069885254
    endloop
  endfacet
  facet normal 0.14773506626221913 0.80881178333996961 0.5692080896534375
    outer loop
      vertex 1.4438818693161011 3.7326803207397461 5.627922534942627
      vertex -0.13109874725341797 4.0203614234924316 5.627922534942627
      vertex -0.043699581176042557 0.043699581176042557 11.255845069885254
    endloop
  endfacet
  facet normal 0.44918856690917081 0.68815467181277246 0.5698006484906285
    outer loop
      vertex 2.7346673011779785 2.8901283740997314 5.627922534942627
      vertex 1.4438818693161011 3.7326803207397461 5.627922534942627
      vertex -0.043699581176042557 0.043699581176042557 11.255845069885254
    endloop
  endfacet
  facet normal 0.67651571666285804 0.46643041398170038 0.56988521126714564
    outer loop
      vertex 3.6046786308288574 1.6282545328140259 5.627922534942627
      vertex 2.7346673011779785 2.8901283740997314 5.627922534942627
      vertex -0.043699581176042557 0.043699581176042557 11.255845069885254
    endloop
  endfacet
  facet normal 0.80265499188742939 0.17599946695656479 0.56988520916864993
    outer loop
      vertex 3.9329624176025391 0.13109874725341797 5.627922534942627
      vertex 3.6046786308288574 1.6282545328140259 5.627922534942627
      vertex -0.043699581176042557 0.043699581176042557 11.255845069885254
    endloop
  endfacet
  facet normal 0.80881179368815614 -0.14773506116365345 0.56920807627256942
    outer loop
      vertex 3.6452813148498535 -1.4438818693161011 5.627922534942627
      vertex 7.3342618942260742 -2.9314634799957275 0
      vertex 7.9096240997314453 0.21849790215492249 0
    endloop
  endfacet
  facet normal 0.80881179380345736 -0.14773506817344753 0.56920807428937659
    outer loop
      vertex 3.6452813148498535 -1.4438818693161011 5.627922534942627
      vertex 7.9096240997314453 0.21849790215492249 0
      vertex 3.9329624176025391 0.13109874725341797 5.627922534942627
    endloop
  endfacet
  facet normal 0.46643049758633776 -0.67651565253105417 0.56988521897119182
    outer loop
      vertex 1.5408552885055542 -3.6046786308288574 5.627922534942627
      vertex 3.1254103183746338 -7.2530570030212402 0
      vertex 5.6491580009460449 -5.5130338668823242 0
    endloop
  endfacet
  facet normal 0.46643042237600513 -0.67651572883804811 0.56988518994343584
    outer loop
      vertex 1.5408552885055542 -3.6046786308288574 5.627922534942627
      vertex 5.6491580009460449 -5.5130338668823242 0
      vertex 2.8027291297912598 -2.7346673011779785 5.627922534942627
    endloop
  endfacet
  facet normal 0.68815463626452145 -0.44918862667407367 0.56980064430843169
    outer loop
      vertex 2.8027291297912598 -2.7346673011779785 5.627922534942627
      vertex 5.6491580009460449 -5.5130338668823242 0
      vertex 7.3342618942260742 -2.9314634799957275 0
    endloop
  endfacet
  facet normal 0.68815462201546918 -0.44918866151206094 0.56980063405348169
    outer loop
      vertex 2.8027291297912598 -2.7346673011779785 5.627922534942627
      vertex 7.3342618942260742 -2.9314634799957275 0
      vertex 3.6452813148498535 -1.4438818693161011 5.627922534942627
    endloop
  endfacet
  facet normal -0.1477350683708086 -0.80881179488395882 0.56920807270282225
    outer loop
      vertex -1.5312811136245728 -3.6452813148498535 5.627922534942627
      vertex -3.0188624858856201 -7.3342618942260742 0
      vertex 0.13109874725341797 -7.9096240997314453 0
    endloop
  endfacet
  facet normal -0.1477350610105248 -0.80881179476289244 0.56920807478517488
    outer loop
      vertex -1.5312811136245728 -3.6452813148498535 5.627922534942627
      vertex 0.13109874725341797 -7.9096240997314453 0
      vertex 0.043699581176042557 -3.9329624176025391 5.627922534942627
    endloop
  endfacet
  facet normal -0.67651571778873831 -0.46643041475794977 0.56988520929527131
    outer loop
      vertex -3.6920778751373291 -1.5408552885055542 5.627922534942627
      vertex -7.3404560089111328 -3.1254103183746338 0
      vertex -5.600433349609375 -5.6491580009460449 0
    endloop
  endfacet
  facet normal -0.67651564148174625 -0.46643048996828168 0.56988523832302407
    outer loop
      vertex -3.6920778751373291 -1.5408552885055542 5.627922534942627
      vertex -5.600433349609375 -5.6491580009460449 0
      vertex -2.8220663070678711 -2.8027291297912598 5.627922534942627
    endloop
  endfacet
  facet normal -0.44918856118848832 -0.68815466304871509 0.56980066358484094
    outer loop
      vertex -2.8220663070678711 -2.8027291297912598 5.627922534942627
      vertex -5.600433349609375 -5.6491580009460449 0
      vertex -3.0188624858856201 -7.3342618942260742 0
    endloop
  endfacet
  facet normal -0.44918872699765339 -0.68815459523126554 0.56980061477706467
    outer loop
      vertex -2.8220663070678711 -2.8027291297912598 5.627922534942627
      vertex -3.0188624858856201 -7.3342618942260742 0
      vertex -1.5312811136245728 -3.6452813148498535 5.627922534942627
    endloop
  endfacet
  facet normal 0.17599934782365473 -0.80265503150969242 0.5698851901548444
    outer loop
      vertex 0.043699581176042557 -3.9329624176025391 5.627922534942627
      vertex 0.13109874725341797 -7.9096240997314453 0
      vertex 3.1254103183746338 -7.2530570030212402 0
    endloop
  endfacet
  facet normal 0.17599947307169553 -0.80265497783456241 0.5698852270728586
    outer loop
      vertex 0.043699581176042557 -3.9329624176025391 5.627922534942627
      vertex 3.1254103183746338 -7.2530570030212402 0
      vertex 1.5408552885055542 -3.6046786308288574 5.627922534942627
    endloop
  endfacet
  facet normal -0.8026549814372036 -0.17599946466512692 0.56988522459494539
    outer loop
      vertex -4.0203614234924316 -0.043699581176042557 5.627922534942627
      vertex -7.9970235824584961 -0.13109874725341797 0
      vertex -7.3404560089111328 -3.1254103183746338 0
    endloop
  endfacet
  facet normal -0.80265502790705423 -0.17599935623021862 0.56988519263275683
    outer loop
      vertex -4.0203614234924316 -0.043699581176042557 5.627922534942627
      vertex -7.3404560089111328 -3.1254103183746338 0
      vertex -3.6920778751373291 -1.5408552885055542 5.627922534942627
    endloop
  endfacet
  facet normal -0.68815461058439686 0.44918865405049935 0.56980065374105882
    outer loop
      vertex -2.8901283740997314 2.8220663070678711 5.627922534942627
      vertex -5.7365570068359375 5.600433349609375 0
      vertex -7.421661376953125 3.0188624858856201 0
    endloop
  endfacet
  facet normal -0.68815462483344825 0.44918861921251235 0.5698006639960087
    outer loop
      vertex -2.8901283740997314 2.8220663070678711 5.627922534942627
      vertex -7.421661376953125 3.0188624858856201 0
      vertex -3.7326803207397461 1.5312811136245728 5.627922534942627
    endloop
  endfacet
  facet normal -0.17599947317383008 0.80265498029755478 0.56988522357231364
    outer loop
      vertex -0.13109874725341797 4.0203614234924316 5.627922534942627
      vertex -0.21849790215492249 7.9970235824584961 0
      vertex -3.2128093242645264 7.3404560089111328 0
    endloop
  endfacet
  facet normal -0.17599934832610131 0.80265503380112868 0.56988518677229749
    outer loop
      vertex -0.13109874725341797 4.0203614234924316 5.627922534942627
      vertex -3.2128093242645264 7.3404560089111328 0
      vertex -1.6282545328140259 3.6920778751373291 5.627922534942627
    endloop
  endfacet
  facet normal -0.466430420010293 0.67651572540679372 0.56988519595295817
    outer loop
      vertex -1.6282545328140259 3.6920778751373291 5.627922534942627
      vertex -3.2128093242645264 7.3404560089111328 0
      vertex -5.7365570068359375 5.600433349609375 0
    endloop
  endfacet
  facet normal -0.46643049522062685 0.67651564909980244 0.56988522498070959
    outer loop
      vertex -1.6282545328140259 3.6920778751373291 5.627922534942627
      vertex -5.7365570068359375 5.600433349609375 0
      vertex -2.8901283740997314 2.8220663070678711 5.627922534942627
    endloop
  endfacet
  facet normal 0.44918871953609119 0.68815458380019434 0.56980063446464146
    outer loop
      vertex 2.7346673011779785 2.8901283740997314 5.627922534942627
      vertex 5.5130338668823242 5.7365570068359375 0
      vertex 2.9314634799957275 7.421661376953125 0
    endloop
  endfacet
  facet normal 0.44918855372692745 0.68815465161764067 0.56980068327241817
    outer loop
      vertex 2.7346673011779785 2.8901283740997314 5.627922534942627
      vertex 2.9314634799957275 7.421661376953125 0
      vertex 1.4438818693161011 3.7326803207397461 5.627922534942627
    endloop
  endfacet
  facet normal 0.80265503037004515 0.17599935633235272 0.56988518913221398
    outer loop
      vertex 3.9329624176025391 0.13109874725341797 5.627922534942627
      vertex 7.9096240997314453 0.21849790215492249 0
      vertex 7.2530570030212402 3.2128093242645264 0
    endloop
  endfacet
  facet normal 0.80265498372864164 0.17599946516757412 0.56988522121239649
    outer loop
      vertex 3.9329624176025391 0.13109874725341797 5.627922534942627
      vertex 7.2530570030212402 3.2128093242645264 0
      vertex 3.6046786308288574 1.6282545328140259 5.627922534942627
    endloop
  endfacet
  facet normal 0.67651566014911024 0.46643050283868287 0.56988520562887657
    outer loop
      vertex 3.6046786308288574 1.6282545328140259 5.627922534942627
      vertex 7.2530570030212402 3.2128093242645264 0
      vertex 5.5130338668823242 5.7365570068359375 0
    endloop
  endfacet
  facet normal 0.67651573645610352 0.46643042762834835 0.56988517660112215
    outer loop
      vertex 3.6046786308288574 1.6282545328140259 5.627922534942627
      vertex 5.5130338668823242 5.7365570068359375 0
      vertex 2.7346673011779785 2.8901283740997314 5.627922534942627
    endloop
  endfacet
  facet normal 0.147735055400979 0.80881176213898265 0.56920812259779219
    outer loop
      vertex 1.4438818693161011 3.7326803207397461 5.627922534942627
      vertex 2.9314634799957275 7.421661376953125 0
      vertex -0.21849790215492249 7.9970235824584961 0
    endloop
  endfacet
  facet normal 0.14773506241077283 0.80881176225428408 0.56920812061459958
    outer loop
      vertex 1.4438818693161011 3.7326803207397461 5.627922534942627
      vertex -0.21849790215492249 7.9970235824584961 0
      vertex -0.13109874725341797 4.0203614234924316 5.627922534942627
    endloop
  endfacet
  facet normal -0.80881176333478555 0.1477350626081339 0.56920811902804547
    outer loop
      vertex -3.7326803207397461 1.5312811136245728 5.627922534942627
      vertex -7.421661376953125 3.0188624858856201 0
      vertex -7.9970235824584961 -0.13109874725341797 0
    endloop
  endfacet
  facet normal -0.80881176321371906 0.14773505524785038 0.56920812111039787
    outer loop
      vertex -3.7326803207397461 1.5312811136245728 5.627922534942627
      vertex -7.9970235824584961 -0.13109874725341797 0
      vertex -4.0203614234924316 -0.043699581176042557 5.627922534942627
    endloop
  endfacet
  facet normal 0 -0 -1
    outer loop
      vertex -5.7365570068359375 5.600433349609375 0
      vertex -7.9970235824584961 -0.13109874725341797 0
      vertex -7.421661376953125 3.0188624858856201 0
    endloop
  endfacet
  facet normal -0 -0 -1
    outer loop
      vertex 3.1254103183746338 -7.2530570030212402 0
      vertex -5.600433349609375 -5.6491580009460449 0
      vertex -5.7365570068359375 5.600433349609375 0
    endloop
  endfacet
  facet normal -0 0 -1
    outer loop
      vertex -3.2128093242645264 7.3404560089111328 0
      vertex 5.5130338668823242 5.7365570068359375 0
      vertex -5.7365570068359375 5.600433349609375 0
    endloop
  endfacet
  facet normal 0 0 -1
    outer loop
      vertex -5.600433349609375 -5.6491580009460449 0
      vertex -7.3404560089111328 -3.1254103183746338 0
      vertex -7.9970235824584961 -0.13109874725341797 0
    endloop
  endfacet
  facet normal 0 0 -1
    outer loop
      vertex -5.7365570068359375 5.600433349609375 0
      vertex -5.600433349609375 -5.6491580009460449 0
      vertex -7.9970235824584961 -0.13109874725341797 0
    endloop
  endfacet
  facet normal 0 -0 -1
    outer loop
      vertex -3.0188624858856201 -7.3342618942260742 0
      vertex -5.600433349609375 -5.6491580009460449 0
      vertex 3.1254103183746338 -7.2530570030212402 0
    endloop
  endfacet
  facet normal -0 -0 -1
    outer loop
      vertex 5.5130338668823242 5.7365570068359375 0
      vertex -3.2128093242645264 7.3404560089111328 0
      vertex -0.21849790215492249 7.9970235824584961 0
    endloop
  endfacet
  facet normal -0 0 -1
    outer loop
      vertex 3.1254103183746338 -7.2530570030212402 0
      vertex -5.7365570068359375 5.600433349609375 0
      vertex 5.5130338668823242 5.7365570068359375 0
    endloop
  endfacet
  facet normal -0 0 -1
    outer loop
      vertex 7.3342618942260742 -2.9314634799957275 0
      vertex 5.5130338668823242 5.7365570068359375 0
      vertex 7.2530570030212402 3.2128093242645264 0
    endloop
  endfacet
  facet normal 0 0 -1
    outer loop
      vertex 7.2530570030212402 3.2128093242645264 0
      vertex 7.9096240997314453 0.21849790215492249 0
      vertex 7.3342618942260742 -2.9314634799957275 0
    endloop
  endfacet
  facet normal 0 -0 -1
    outer loop
      vertex 0.13109874725341797 -7.9096240997314453 0
      vertex -3.0188624858856201 -7.3342618942260742 0
      vertex 3.1254103183746338 -7.2530570030212402 0
    endloop
  endfacet
  facet normal -0 0 -1
    outer loop
      vertex 3.1254103183746338 -7.2530570030212402 0
      vertex 7.3342618942260742 -2.9314634799957275 0
      vertex 5.6491580009460449 -5.5130338668823242 0
    endloop
  endfacet
  facet normal -0 0 -1
    outer loop
      vertex 3.1254103183746338 -7.2530570030212402 0
      vertex 5.5130338668823242 5.7365570068359375 0
      vertex 7.3342618942260742 -2.9314634799957275 0
    endloop
  endfacet
  facet normal -0 -0 -1
    outer loop
      vertex 5.5130338668823242 5.7365570068359375 0
      vertex -0.21849790215492249 7.9970235824584961 0
      vertex 2.9314634799957275 7.421661376953125 0
    endloop
  endfacet
endsolid OBJECT
